<?xml version="1.0" standalone="no"?>
<!DOCTYPE svg PUBLIC "-//W3C//DTD SVG 20010904//EN"
 "http://www.w3.org/TR/2001/REC-SVG-20010904/DTD/svg10.dtd">
<svg version="1.0" xmlns="http://www.w3.org/2000/svg"
 width="225.000000pt" height="225.000000pt" viewBox="0 0 225.000000 225.000000"
 preserveAspectRatio="xMidYMid meet">
<metadata>
Created by potrace 1.16, written by Peter Selinger 2001-2019
</metadata>
<g transform="translate(0.000000,225.000000) scale(0.100000,-0.100000)"
fill="#000000" stroke="none">
<path d="M1165 2080 c-220 -26 -431 -50 -468 -54 -119 -13 -107 85 -107 -900
0 -764 2 -856 16 -870 8 -9 20 -16 27 -16 13 0 743 -94 884 -114 75 -11 104
-11 123 -2 l25 11 3 979 c2 1095 7 1017 -67 1015 -20 -1 -216 -23 -436 -49z
m476 14 c6 -7 8 -375 7 -980 l-3 -969 -35 -3 c-33 -3 -959 113 -987 123 -20 7
-19 1708 0 1724 14 11 912 120 975 118 18 -1 37 -6 43 -13z"/>
<path d="M1453 2033 c-22 -4 -23 -9 -23 -92 l0 -89 48 5 c26 2 62 6 80 9 l33
5 -3 82 -3 82 -55 1 c-30 1 -65 0 -77 -3z"/>
<path d="M1375 2023 c-16 -2 -49 -6 -72 -9 l-43 -5 0 -86 0 -86 71 7 c39 3 75
9 80 12 11 6 12 175 2 173 -5 -1 -21 -4 -38 -6z"/>
<path d="M1220 2004 c-8 -1 -41 -6 -73 -9 l-58 -7 3 -81 3 -82 70 4 c39 2 73
5 78 8 4 2 7 42 7 89 0 46 -3 83 -7 83 -5 -1 -15 -3 -23 -5z"/>
<path d="M1040 1984 c-14 -3 -44 -7 -67 -10 l-43 -5 0 -81 0 -81 65 6 c36 4
70 9 75 12 12 7 14 166 3 164 -5 -1 -19 -3 -33 -5z"/>
<path d="M780 1954 c-152 -20 -150 -19 -150 -105 l0 -72 46 7 c26 3 55 6 65 6
17 0 19 9 21 78 1 62 2 67 5 22 6 -98 5 -97 70 -93 86 6 83 3 83 93 0 70 -2
80 -17 79 -10 -1 -65 -8 -123 -15z"/>
<path d="M1545 1853 c-16 -2 -49 -6 -72 -9 l-43 -5 0 -85 0 -84 34 0 c18 0 54
3 80 6 l46 7 0 88 c0 49 -3 88 -7 88 -5 -1 -21 -4 -38 -6z"/>
<path d="M1320 1831 l-55 -6 -3 -82 -3 -83 49 0 c27 0 64 3 81 6 l32 7 -3 81
c-3 92 1 88 -98 77z"/>
<path d="M1118 1813 c-28 -4 -28 -5 -28 -84 l0 -80 73 2 c39 1 75 7 79 13 4 6
8 44 8 84 l0 72 -52 -1 c-29 -1 -65 -4 -80 -6z"/>
<path d="M990 1801 l-55 -6 0 -79 0 -80 65 3 c35 1 68 5 72 7 5 3 8 41 8 85 0
69 -2 79 -17 77 -10 -1 -43 -4 -73 -7z"/>
<path d="M795 1781 c-16 -7 -21 -20 -26 -77 l-5 -69 -2 74 -2 74 -46 -7 c-26
-3 -55 -6 -65 -6 -17 0 -19 -9 -19 -81 l0 -81 28 6 c15 3 77 8 137 12 61 3
113 8 118 11 4 2 7 38 7 79 l0 74 -52 -1 c-29 0 -62 -4 -73 -8z"/>
<path d="M1490 1661 l-55 -6 0 -82 c0 -46 3 -83 8 -83 4 0 39 0 77 0 l70 0 0
90 c0 102 11 93 -100 81z"/>
<path d="M1333 1652 l-73 -3 0 -85 0 -85 78 3 77 3 3 79 c2 44 -1 82 -5 85 -4
3 -41 5 -80 3z"/>
<path d="M1095 1632 c-3 -3 -5 -41 -5 -84 l0 -80 70 4 c39 2 70 0 70 -4 0 -4
-30 -8 -67 -10 l-68 -3 0 -80 0 -80 70 3 c38 2 73 6 77 8 4 3 7 79 7 170 l0
165 -74 -2 c-41 -1 -77 -4 -80 -7z"/>
<path d="M948 1623 c-15 -4 -18 -17 -18 -85 l0 -81 53 7 c28 3 62 6 75 6 21 0
22 4 22 80 l0 80 -57 -1 c-32 -1 -66 -3 -75 -6z"/>
<path d="M800 1610 c-14 -4 -37 -5 -52 -2 -15 2 -48 1 -73 -2 l-45 -7 0 -76 0
-75 138 7 c75 4 140 9 145 12 4 2 7 38 7 79 l0 74 -47 -1 c-27 -1 -59 -4 -73
-9z"/>
<path d="M1447 1473 c-16 -4 -17 -15 -15 -86 l3 -82 35 1 c19 1 54 2 78 3 l42
1 0 85 0 85 -62 -1 c-35 -1 -71 -3 -81 -6z"/>
<path d="M1267 1463 c-4 -3 -7 -42 -7 -85 l0 -79 78 3 77 3 3 83 3 82 -74 0
c-40 0 -77 -3 -80 -7z"/>
<path d="M973 1453 l-43 -4 0 -80 0 -80 73 3 72 3 0 80 0 80 -30 1 c-16 1 -49
-1 -72 -3z"/>
<path d="M796 1443 c-4 -4 -43 -6 -86 -4 l-80 2 0 -82 0 -81 63 5 c34 3 63 6
65 7 1 0 3 30 4 68 l1 67 6 -65 6 -65 70 0 70 0 3 78 3 77 -59 0 c-32 0 -62
-3 -66 -7z"/>
<path d="M1488 1292 l-58 -3 0 -84 0 -85 80 0 80 0 0 89 c0 85 -1 88 -22 87
-13 0 -49 -2 -80 -4z"/>
<path d="M1123 1282 l-33 -3 0 -80 0 -79 80 0 81 0 -3 83 -3 82 -45 0 c-25 0
-60 -1 -77 -3z"/>
<path d="M1260 1205 l0 -85 80 0 80 0 0 85 0 85 -80 0 -80 0 0 -85z"/>
<path d="M782 1268 c-6 -8 -13 -41 -15 -73 l-3 -60 -2 68 -2 67 -65 0 -65 0 0
-80 0 -80 64 0 c43 0 66 4 69 13 3 9 7 9 18 0 9 -7 39 -11 75 -10 l59 3 0 79
0 80 -61 3 c-41 2 -64 -1 -72 -10z"/>
<path d="M933 1113 l2 -168 70 0 70 0 0 80 0 80 -62 -1 c-35 0 -63 3 -63 8 0
4 29 8 65 8 l65 0 0 80 0 80 -75 0 -75 0 3 -167z"/>
<path d="M1094 1095 c-3 -6 -4 -43 -2 -81 l3 -69 78 -3 78 -3 -3 83 -3 83 -73
1 c-50 1 -75 -2 -78 -11z"/>
<path d="M1267 1104 c-4 -4 -7 -43 -7 -86 l0 -78 70 0 c39 0 73 0 78 0 4 0 7
37 7 83 l0 82 -70 3 c-39 1 -74 0 -78 -4z"/>
<path d="M1434 1097 c-3 -8 -4 -47 -2 -88 l3 -74 78 -3 77 -3 0 91 0 90 -75 0
c-54 0 -77 -4 -81 -13z"/>
<path d="M630 1025 l0 -75 65 0 65 0 2 73 2 72 5 -70 6 -70 73 -3 72 -3 0 76
0 75 -145 0 -145 0 0 -75z"/>
<path d="M630 866 l0 -74 33 -5 c17 -3 68 -6 112 -7 44 -1 94 -2 110 -3 l30
-2 0 80 0 79 -67 4 c-76 4 -75 5 -81 -93 -3 -39 -4 -34 -5 23 l-2 72 -65 0
-65 0 0 -74z"/>
<path d="M930 856 c0 -41 3 -77 8 -80 4 -2 37 -6 72 -7 l65 -3 3 82 3 82 -76
0 -75 0 0 -74z"/>
<path d="M1092 848 l3 -83 78 -3 78 -3 -3 83 -3 83 -78 3 -78 3 3 -83z"/>
<path d="M1264 917 c-3 -8 -4 -47 -2 -88 l3 -74 78 -3 77 -4 0 85 c0 96 4 92
-93 96 -41 1 -59 -2 -63 -12z"/>
<path d="M1430 835 c0 -47 1 -85 3 -85 1 -1 37 -3 80 -7 l77 -6 0 92 0 91 -80
0 -80 0 0 -85z"/>
<path d="M630 699 c0 -70 2 -79 19 -79 10 0 39 -3 65 -6 l46 -7 2 74 1 74 6
-67 c3 -36 8 -69 11 -72 3 -2 35 -6 70 -8 l65 -3 3 78 c3 68 1 77 -15 78 -10
0 -63 3 -118 5 -55 2 -112 6 -127 8 l-28 4 0 -79z"/>
<path d="M930 680 c0 -69 2 -80 18 -80 9 -1 43 -3 75 -7 l57 -5 0 80 c0 91 -1
92 -97 92 l-53 0 0 -80z"/>
<path d="M1090 672 l0 -79 46 -7 c26 -3 62 -6 81 -6 l34 0 -3 83 -3 82 -77 3
-78 3 0 -79z"/>
<path d="M1260 662 c0 -92 0 -92 103 -92 l58 0 -3 83 -3 82 -77 3 -78 3 0 -79z"/>
<path d="M1433 724 c-2 -6 -3 -44 -1 -85 l3 -74 78 -5 77 -5 0 87 0 86 -76 4
c-49 2 -78 -1 -81 -8z"/>
<path d="M630 531 l0 -81 58 -1 c31 0 66 -2 77 -3 11 -2 50 -7 88 -11 l67 -7
0 79 0 80 -67 7 c-36 4 -70 3 -74 -1 -4 -4 -10 -37 -12 -73 l-3 -65 -2 73 c-2
71 -2 72 -29 72 -16 0 -45 3 -65 6 l-38 7 0 -82z"/>
<path d="M930 512 c0 -91 1 -92 98 -92 l52 0 0 75 c0 85 4 80 -87 90 l-63 6 0
-79z"/>
<path d="M1094 566 c-3 -7 -4 -44 -2 -82 l3 -69 64 -8 c36 -4 70 -6 78 -3 18
7 19 155 1 161 -7 2 -41 6 -76 8 -45 4 -65 2 -68 -7z"/>
<path d="M1264 561 c-2 -2 -4 -39 -4 -82 0 -88 -3 -85 105 -91 l50 -2 0 84 0
85 -73 5 c-41 3 -76 3 -78 1z"/>
<path d="M1430 471 c0 -44 3 -82 8 -85 4 -2 40 -8 80 -12 l73 -7 -3 89 -3 89
-77 3 -78 4 0 -81z"/>
<path d="M630 382 c0 -59 22 -102 53 -102 17 0 175 -19 210 -25 l27 -4 0 80
c0 55 -4 81 -12 84 -7 3 -40 6 -73 7 l-60 3 -6 -75 -5 -75 -2 76 c-2 87 -4 89
-83 89 l-49 0 0 -58z"/>
<path d="M935 411 c-3 -2 -5 -40 -5 -83 0 -74 1 -78 23 -79 12 0 46 -4 75 -8
l53 -8 -3 84 c-2 46 -6 84 -10 85 -20 6 -129 13 -133 9z"/>
<path d="M1090 318 l0 -85 61 -7 c107 -11 99 -16 99 73 0 44 -4 82 -8 85 -4 3
-40 8 -80 12 l-72 6 0 -84z"/>
<path d="M1260 300 l0 -87 61 -7 c107 -11 99 -17 99 79 l0 84 -32 5 c-18 3
-54 7 -80 9 l-48 5 0 -88z"/>
<path d="M1430 283 l0 -90 61 -7 c107 -11 99 -18 99 84 l0 90 -27 0 c-16 0
-52 3 -80 6 l-53 7 0 -90z"/>
</g>
</svg>
