<?xml version="1.0" standalone="no"?>
<!DOCTYPE svg PUBLIC "-//W3C//DTD SVG 20010904//EN"
 "http://www.w3.org/TR/2001/REC-SVG-20010904/DTD/svg10.dtd">
<svg version="1.0" xmlns="http://www.w3.org/2000/svg"
 width="5040.000000pt" height="3360.000000pt" viewBox="0 0 5040.000000 3360.000000"
 preserveAspectRatio="xMidYMid meet">
<metadata>
Created by potrace 1.16, written by Peter Selinger 2001-2019
</metadata>
<g transform="translate(0.000000,3360.000000) scale(0.100000,-0.100000)"
fill="#000000" stroke="none">
<path d="M0 33531 c0 -60 3 -71 22 -84 l23 -16 -23 -7 c-16 -5 -22 -14 -22
-35 0 -24 4 -29 25 -29 32 0 32 -17 0 -32 -24 -11 -25 -14 -25 -116 0 -85 3
-107 16 -117 15 -10 15 -13 0 -27 -13 -13 -16 -39 -16 -135 0 -79 4 -123 12
-131 9 -9 9 -12 0 -12 -9 0 -12 -30 -12 -105 0 -95 2 -105 18 -105 11 0 27 8
36 19 16 18 16 19 -13 29 -38 13 -39 25 -5 41 22 10 24 14 13 27 -11 14 -10
18 6 31 11 7 28 12 38 9 9 -2 15 0 11 5 -3 5 1 9 9 9 21 0 28 26 11 40 -19 16
-18 50 1 50 11 0 15 11 15 40 0 22 3 40 8 40 13 -1 49 -34 61 -57 10 -19 9
-21 -9 -18 -12 2 -24 -3 -30 -15 -16 -30 -12 -42 10 -35 13 4 32 0 48 -11 15
-10 43 -18 62 -19 19 0 40 -4 46 -8 7 -4 17 0 24 7 9 12 7 21 -6 42 l-18 27
24 -8 c14 -3 35 -18 46 -32 16 -19 29 -24 48 -21 29 6 33 -7 12 -35 -13 -17
-15 -16 -45 9 -26 22 -32 23 -37 10 -3 -9 -17 -16 -30 -16 -17 0 -22 -4 -18
-15 7 -17 40 -20 49 -5 4 6 15 5 30 -2 26 -12 74 1 106 29 12 10 23 11 43 4
23 -9 26 -8 26 9 0 13 -7 20 -20 20 -11 0 -23 7 -26 15 -4 8 -10 13 -14 10 -5
-3 -20 -1 -35 5 -19 7 -31 7 -40 0 -10 -8 -17 -3 -29 21 -20 40 -20 41 2 38
31 -5 60 11 65 36 5 29 -9 32 -35 8 -10 -9 -33 -16 -51 -16 -17 0 -36 -6 -42
-13 -5 -7 -19 -14 -30 -16 -14 -2 -20 -12 -21 -35 -3 -52 -11 -68 -29 -53 -8
7 -15 19 -15 27 0 9 -6 13 -15 10 -22 -9 -29 12 -11 32 18 20 12 51 -9 51 -18
0 -25 13 -16 28 9 15 41 5 41 -12 0 -6 12 -16 26 -23 24 -11 26 -11 20 10 -3
12 1 28 11 39 15 16 17 17 28 1 17 -23 45 -9 45 22 0 14 7 41 14 60 13 30 13
35 1 35 -23 0 -29 22 -10 36 9 7 20 28 24 46 5 24 13 34 29 36 29 4 30 -24 1
-33 l-21 -7 22 -23 c18 -19 19 -23 6 -28 -34 -13 -12 -34 46 -44 26 -4 27 -2
22 26 -5 24 -3 31 10 31 9 0 16 4 16 10 0 6 18 7 44 4 48 -7 52 -3 58 65 2 25
-2 37 -17 45 -46 26 -55 58 -17 61 50 4 38 35 -14 35 -24 0 -34 -4 -34 -16 0
-8 -4 -13 -8 -10 -13 8 -2 64 13 70 8 3 19 -2 25 -10 21 -24 32 -16 28 21 -4
33 -2 35 27 35 17 0 46 -9 65 -19 32 -17 35 -22 32 -57 -4 -43 -11 -54 -38
-58 -25 -4 -30 -26 -5 -26 11 0 23 -4 26 -10 3 -5 15 -10 26 -10 15 0 20 6 17
23 -1 12 6 33 16 47 10 14 16 18 13 10 -7 -22 21 -49 44 -43 24 7 24 12 2 29
-14 10 -15 15 -6 25 10 10 17 9 33 -6 15 -13 23 -15 33 -7 12 10 59 8 78 -3 4
-3 12 1 18 9 9 11 7 15 -9 19 -12 3 -18 1 -14 -5 3 -5 -3 -4 -15 4 -27 17 -27
24 6 52 27 23 27 23 5 30 -12 4 -31 2 -42 -4 -25 -13 -40 -6 -40 21 0 16 8 19
45 21 25 1 53 2 62 2 9 1 20 -8 23 -19 5 -20 22 -26 36 -13 4 4 -1 10 -10 14
-17 7 -22 49 -6 59 5 3 10 17 10 30 0 22 4 24 38 22 34 -2 37 0 40 26 4 33
-23 38 -31 6 -5 -18 -11 -20 -36 -14 -32 7 -36 2 -32 -50 1 -14 -1 -16 -7 -7
-6 9 -12 6 -20 -13 -10 -22 -15 -24 -33 -15 -13 8 -19 18 -16 30 6 23 -11 31
-36 18 -9 -5 -21 -6 -26 -3 -5 3 -12 -1 -14 -7 -3 -7 -6 -2 -6 11 -1 22 -4 23
-41 17 -33 -5 -40 -3 -40 10 0 21 -34 14 -38 -9 -2 -9 4 -31 12 -48 10 -20 12
-37 7 -47 -7 -13 -10 -12 -15 6 -8 24 -41 30 -49 10 -8 -24 -18 0 -22 53 -2
30 2 60 7 67 8 9 -1 12 -41 12 -49 0 -52 -1 -46 -22 6 -17 4 -20 -10 -15 -9 4
-19 7 -21 7 -2 0 -4 7 -4 15 0 13 -39 15 -290 15 l-290 0 0 -69z"/>
<path d="M686 33176 c-8 -31 -1 -46 19 -46 9 0 12 -6 9 -15 -10 -24 22 -8 41
21 9 14 20 22 26 18 6 -4 4 -13 -6 -24 -9 -10 -14 -24 -10 -30 4 -6 0 -19 -10
-29 -15 -18 -14 -20 21 -49 45 -37 90 -46 115 -21 9 9 25 19 35 21 10 1 17 8
16 13 0 6 6 20 14 32 13 21 13 23 -5 20 -25 -4 -51 -26 -51 -43 0 -20 -19 -27
-26 -10 -3 9 1 22 10 31 17 17 11 45 -9 45 -7 0 -23 -16 -34 -36 -31 -51 -57
-43 -53 16 2 26 10 49 20 56 16 12 15 13 -3 19 -40 14 -44 14 -50 5 -3 -6 -15
-15 -25 -20 -15 -8 -18 -7 -15 3 3 7 -1 21 -8 31 -13 18 -14 18 -21 -8z"/>
<path d="M0 9455 l0 -9455 14172 0 c11918 0 14169 2 14153 14 -11 7 -42 25
-70 41 -27 15 -72 44 -100 64 -69 52 -254 175 -290 194 -16 8 -43 27 -60 42
-16 14 -43 33 -60 42 -16 9 -61 37 -100 63 -38 26 -88 59 -110 74 -22 14 -78
52 -124 84 -46 31 -114 77 -151 102 -38 25 -155 104 -260 175 -106 72 -200
135 -208 140 -8 6 -76 51 -151 101 -75 50 -161 107 -191 127 -30 20 -80 54
-110 75 -30 21 -77 51 -103 66 -26 15 -62 40 -80 55 -18 15 -57 42 -87 60 -62
37 -131 82 -205 135 -49 36 -170 117 -245 166 -21 14 -78 52 -127 84 -170 115
-314 211 -382 256 -37 25 -108 72 -156 105 -48 33 -110 74 -136 90 -27 17 -72
46 -101 66 -29 20 -78 52 -108 72 -57 38 -218 156 -305 224 -98 77 -233 163
-256 163 -9 0 -45 -28 -80 -61 -76 -73 -87 -78 -208 -94 -98 -13 -141 -10
-261 20 -36 9 -96 22 -135 29 -38 8 -71 19 -73 25 -4 12 -23 15 -21 4 4 -22
-4 -22 -30 -4 -23 17 -39 20 -75 16 -30 -4 -46 -2 -46 5 0 7 -6 7 -21 0 -27
-15 -37 -5 -21 21 10 16 10 20 -4 26 -8 3 -23 -1 -31 -10 -15 -15 -19 -14 -45
8 -16 14 -42 25 -57 25 -15 0 -32 5 -39 12 -7 7 -22 13 -35 13 -12 0 -22 6
-22 15 -1 8 -7 14 -14 12 -8 -2 -10 4 -6 18 4 12 2 20 -5 20 -6 0 -9 4 -6 9 3
5 -6 21 -19 35 -14 15 -25 34 -25 42 0 7 -4 14 -10 14 -5 0 -10 -4 -10 -10 0
-5 -7 -10 -15 -10 -8 0 -15 9 -15 19 0 10 -7 22 -16 25 -9 4 -14 13 -10 21 6
17 -63 87 -104 106 -14 6 -52 42 -85 79 -33 37 -72 73 -87 80 -15 7 -26 16
-23 20 3 5 -21 25 -53 46 -31 21 -61 43 -67 49 -5 7 -30 23 -55 37 -25 14 -57
40 -73 57 -15 17 -33 31 -40 31 -7 0 -20 9 -30 20 -9 11 -25 20 -35 20 -10 0
-32 16 -51 35 -18 19 -39 35 -47 35 -9 0 -30 16 -48 35 -19 19 -36 35 -40 35
-4 0 -12 5 -19 10 -48 41 -62 50 -74 50 -7 0 -16 7 -19 15 -4 8 -15 15 -25 15
-10 0 -34 16 -53 35 -20 19 -42 35 -51 35 -8 0 -15 5 -15 10 0 6 -17 17 -37
25 -21 9 -63 40 -93 70 -30 30 -64 55 -74 55 -11 0 -26 7 -35 15 -76 72 -105
95 -116 95 -8 0 -17 5 -20 10 -4 6 -21 17 -38 24 -18 8 -50 30 -71 50 -22 20
-45 36 -52 36 -7 0 -28 16 -47 35 -19 19 -45 35 -56 35 -12 0 -40 19 -64 45
-24 25 -51 45 -60 45 -9 0 -21 9 -27 20 -6 11 -20 20 -31 20 -11 0 -22 7 -25
15 -4 8 -14 15 -24 15 -19 0 -50 30 -50 48 0 11 -13 16 -32 13 -5 0 -8 4 -8 9
0 6 -5 10 -11 10 -6 0 -34 18 -61 40 -28 22 -55 40 -59 40 -5 0 -28 18 -51 41
-23 22 -56 47 -72 55 -63 30 -91 47 -99 61 -4 7 -14 13 -21 13 -7 0 -21 9 -30
19 -10 11 -28 22 -41 25 -13 3 -33 20 -45 36 -12 17 -38 38 -58 48 -62 30 -85
46 -105 69 -10 13 -25 23 -33 23 -8 0 -28 16 -45 35 -17 19 -42 38 -55 41 -13
3 -24 11 -24 16 0 6 -7 8 -15 4 -9 -3 -20 3 -27 14 -7 11 -23 20 -35 20 -12 0
-38 16 -59 35 -20 20 -48 38 -61 41 -12 4 -23 10 -23 15 0 5 -25 25 -56 45
-30 19 -58 42 -61 50 -3 8 -11 14 -19 14 -7 0 -18 9 -24 20 -6 11 -18 20 -26
20 -9 0 -29 11 -46 25 -16 14 -40 25 -53 25 -14 0 -37 15 -59 40 -20 22 -40
40 -45 40 -5 0 -16 6 -23 14 -8 7 -28 21 -45 29 -17 9 -45 30 -61 47 -17 16
-38 30 -46 30 -9 0 -16 5 -16 10 0 6 -6 10 -13 10 -7 0 -23 13 -35 30 -13 17
-31 30 -42 30 -10 0 -34 14 -52 30 -18 17 -43 30 -55 30 -17 0 -27 10 -37 35
-12 27 -21 35 -40 35 -15 0 -26 5 -26 10 0 11 -90 70 -102 67 -3 -1 -17 8 -30
20 -22 20 -126 93 -133 93 -2 0 -16 11 -31 25 -15 14 -33 25 -40 25 -7 0 -23
14 -36 30 -13 19 -31 30 -46 30 -13 0 -37 14 -54 31 -17 16 -45 38 -63 47 -51
26 -205 133 -205 142 0 4 -10 10 -23 14 -13 3 -37 18 -54 33 -31 30 -58 49
-83 60 -8 3 -40 25 -70 48 -30 23 -76 53 -102 68 -26 15 -60 39 -75 53 -16 15
-49 37 -74 49 -25 13 -51 31 -58 39 -8 9 -19 16 -25 16 -7 0 -28 16 -47 36
-38 40 -78 63 -96 57 -7 -3 -17 7 -23 21 -5 14 -16 26 -23 26 -7 0 -24 11 -37
25 -12 13 -26 22 -30 20 -4 -3 -14 2 -21 11 -11 14 -58 46 -144 101 -11 7 -32
18 -47 25 -16 7 -28 18 -28 25 0 7 -5 13 -11 13 -6 0 -24 11 -41 25 -16 14
-42 28 -56 31 -15 4 -34 12 -42 19 -8 7 -26 16 -38 20 -14 4 -28 19 -34 36 -6
18 -19 31 -34 35 -13 3 -24 10 -24 15 0 5 -16 15 -35 23 -19 8 -40 19 -47 25
-7 6 -35 29 -61 51 -26 22 -59 43 -72 46 -13 3 -26 12 -29 20 -3 8 -35 28 -70
44 -36 17 -72 40 -80 52 -9 12 -35 31 -58 42 -24 12 -55 30 -70 39 -14 10 -35
17 -45 15 -14 -2 -17 2 -15 21 3 21 1 23 -22 17 -19 -5 -28 -2 -32 9 -4 8 -15
15 -25 15 -12 0 -19 7 -19 20 0 12 -16 29 -47 47 -27 15 -62 37 -79 50 -17 13
-36 23 -42 23 -6 0 -16 9 -22 20 -6 11 -19 20 -29 20 -10 0 -38 18 -61 40 -23
22 -48 40 -54 40 -6 0 -23 11 -38 25 -15 14 -32 25 -38 25 -5 0 -18 8 -28 18
-10 9 -51 40 -92 67 -41 28 -84 61 -95 73 -11 13 -33 31 -50 39 -16 9 -51 33
-76 55 -25 21 -50 38 -56 38 -7 0 -19 7 -27 16 -24 24 -109 80 -131 88 -11 3
-45 26 -75 51 -30 25 -60 45 -67 45 -7 0 -17 9 -23 20 -6 11 -20 20 -31 20
-11 0 -22 7 -25 15 -4 8 -12 15 -20 15 -7 0 -18 9 -24 20 -6 11 -17 20 -24 20
-7 0 -25 9 -40 21 -14 11 -26 18 -26 14 0 -3 -18 11 -40 31 -22 21 -62 49 -88
63 -80 43 -122 72 -122 85 0 6 -21 21 -48 34 -26 12 -63 37 -83 55 -20 17 -53
41 -75 52 -21 11 -46 27 -54 35 -9 8 -38 31 -66 50 -62 44 -62 44 -104 78 -19
16 -48 36 -65 45 -16 9 -43 28 -60 42 -16 15 -58 41 -92 58 -35 16 -63 34 -63
39 0 4 -16 16 -35 25 -19 9 -35 20 -35 25 0 4 -15 14 -32 22 -18 7 -49 29 -68
48 -19 19 -50 43 -67 53 -18 11 -33 23 -33 27 0 5 -10 13 -22 18 -34 15 -62
33 -71 48 -4 6 -13 12 -20 12 -7 0 -38 20 -69 45 -32 25 -63 45 -69 45 -6 0
-36 19 -67 43 -84 63 -141 100 -184 119 -16 7 -28 16 -28 20 0 4 -5 8 -11 8
-6 0 -43 26 -82 58 -80 64 -180 132 -196 132 -5 0 -13 9 -16 21 -4 12 -26 29
-51 40 -24 11 -44 24 -44 28 0 4 -19 16 -42 27 -22 10 -77 49 -122 87 -45 37
-91 74 -103 80 -43 24 -138 92 -146 104 -4 7 -15 13 -23 13 -8 0 -17 7 -20 15
-4 8 -11 15 -18 15 -6 0 -29 14 -50 30 -22 17 -44 30 -50 30 -5 0 -31 18 -57
40 -26 22 -52 40 -57 40 -5 0 -17 9 -27 20 -10 11 -25 20 -33 20 -9 0 -27 11
-41 24 -69 66 -109 98 -136 113 -16 9 -44 27 -61 39 -17 13 -34 24 -39 24 -4
0 -21 11 -39 26 -17 14 -73 52 -123 85 -51 34 -93 65 -93 71 0 5 -4 7 -9 3 -6
-3 -13 1 -18 9 -4 8 -26 24 -48 37 -22 13 -65 41 -95 64 -30 23 -72 51 -92 64
-21 12 -38 27 -38 32 0 5 -6 9 -12 9 -16 0 -179 107 -228 148 -19 16 -62 47
-95 68 -33 22 -70 48 -81 59 -39 37 -68 55 -86 55 -10 0 -21 7 -24 15 -4 8
-12 15 -20 15 -8 0 -28 14 -46 30 -17 17 -36 30 -43 30 -7 0 -27 16 -46 35
-19 19 -37 35 -41 35 -4 0 -38 20 -75 45 -37 25 -73 45 -80 45 -8 0 -29 16
-49 35 -19 19 -41 35 -50 35 -8 0 -29 13 -47 29 -39 36 -104 81 -117 81 -5 0
-13 6 -17 14 -4 7 -48 41 -98 75 -179 123 -252 175 -337 242 -48 38 -109 81
-135 96 -27 14 -82 53 -124 85 -42 32 -82 58 -88 58 -7 0 -43 25 -80 55 -38
30 -74 55 -81 55 -7 0 -21 11 -32 25 -11 14 -25 25 -33 25 -7 0 -38 20 -68 45
-31 25 -59 45 -64 45 -4 0 -22 13 -40 28 -17 15 -44 35 -60 44 -45 28 -185
125 -219 153 -18 14 -34 25 -37 25 -3 0 -34 19 -68 43 -34 23 -82 53 -106 67
-24 14 -50 35 -59 48 -8 12 -20 22 -25 22 -5 0 -36 19 -67 42 -71 53 -152 108
-159 108 -3 0 -19 11 -37 26 -17 14 -76 54 -130 90 -55 36 -118 80 -140 98
-23 18 -72 52 -111 74 -38 23 -85 54 -104 69 -18 16 -47 34 -64 41 -17 8 -41
24 -53 35 -29 31 -63 57 -72 57 -4 0 -15 9 -25 20 -9 11 -23 20 -31 20 -8 0
-23 11 -34 25 -11 14 -26 25 -34 25 -8 0 -23 9 -33 20 -10 11 -24 20 -32 20
-7 0 -13 4 -13 9 0 5 -13 14 -29 19 -16 6 -34 20 -41 31 -6 12 -17 21 -26 21
-8 0 -27 8 -42 17 -28 18 -36 24 -89 70 -17 15 -54 44 -82 63 -28 19 -74 52
-102 73 -28 20 -60 37 -70 37 -10 0 -19 4 -19 8 0 9 -99 74 -152 101 -16 8
-28 17 -28 20 0 4 -27 27 -61 51 -33 25 -76 57 -96 73 -20 15 -41 27 -48 27
-7 0 -18 7 -25 15 -11 14 -167 119 -245 165 -22 13 -46 32 -53 42 -7 10 -19
18 -27 18 -8 0 -26 12 -42 26 -30 28 -150 111 -191 133 -15 8 -29 18 -32 22
-3 4 -39 30 -80 58 -144 98 -166 115 -245 197 -81 83 -101 107 -111 134 -3 8
-12 29 -20 46 -8 17 -17 63 -19 103 -2 40 -8 78 -13 84 -12 16 -9 56 7 85 10
18 9 26 -4 44 -8 13 -15 33 -15 45 0 18 -6 23 -25 23 -14 0 -25 6 -25 13 0 19
-54 56 -92 64 -18 3 -42 16 -53 30 -11 13 -31 25 -44 28 -12 2 -28 9 -35 14
-7 6 -18 6 -25 1 -8 -4 -19 -6 -26 -4 -6 3 -28 -7 -49 -21 -69 -47 -111 -62
-186 -69 -64 -6 -87 -3 -160 19 -46 14 -89 30 -94 35 -6 6 -19 10 -30 10 -11
0 -38 9 -60 19 -23 10 -67 30 -98 44 -31 14 -65 35 -75 46 -9 12 -28 21 -40
21 -14 0 -23 6 -23 15 0 8 -3 15 -7 15 -5 0 -39 25 -78 55 -38 30 -98 76 -133
102 -35 27 -80 63 -101 81 -21 17 -43 32 -48 32 -5 0 -27 16 -49 36 -21 19
-56 48 -78 62 -79 55 -122 82 -143 91 -11 5 -24 15 -28 21 -4 6 -23 22 -43 35
-21 13 -56 38 -80 55 -23 16 -45 30 -47 30 -10 0 -95 62 -95 70 0 4 -11 11
-25 14 -14 4 -25 11 -25 16 0 6 -6 10 -14 10 -8 0 -25 9 -38 20 -28 25 -146
100 -156 100 -4 0 -22 16 -41 35 -19 19 -39 35 -46 35 -6 0 -20 9 -30 20 -10
11 -23 20 -29 20 -6 0 -40 24 -76 53 -36 28 -85 63 -110 76 -25 14 -65 40 -90
58 -25 18 -58 41 -74 51 -15 9 -46 32 -69 50 -22 18 -49 38 -61 44 -12 6 -39
26 -62 45 -23 18 -46 33 -52 33 -6 0 -27 14 -45 30 -19 17 -38 30 -41 30 -4 0
-27 15 -50 33 -24 17 -65 46 -91 62 -27 17 -62 39 -80 50 -17 11 -51 36 -75
55 -45 36 -51 40 -109 75 -36 22 -59 38 -152 105 -33 25 -72 51 -85 58 -13 7
-24 17 -24 22 0 4 -17 19 -37 31 -21 13 -40 26 -43 29 -3 3 -36 27 -75 53 -38
26 -81 55 -95 65 -49 37 -135 92 -143 92 -5 0 -30 18 -56 40 -26 22 -51 40
-56 40 -4 0 -26 15 -49 33 -23 19 -81 60 -131 93 -49 32 -91 62 -93 66 -2 4
-20 17 -40 30 -20 12 -53 34 -72 48 -19 15 -57 43 -84 63 -27 20 -53 37 -58
37 -4 0 -8 -4255 -8 -9455z m11435 -5540 c174 -45 377 -191 440 -314 52 -103
77 -274 53 -366 -15 -59 -59 -145 -74 -145 -8 0 -20 -12 -28 -27 -18 -36 -75
-93 -91 -93 -7 0 -18 -7 -25 -15 -7 -8 -23 -15 -35 -15 -12 0 -28 -7 -35 -15
-7 -8 -29 -15 -49 -15 -20 0 -41 -4 -47 -10 -18 -18 -170 -21 -212 -4 -109 47
-261 126 -266 140 -4 11 -14 15 -31 12 -14 -3 -25 -1 -25 6 -1 22 -48 69 -64
63 -8 -3 -18 -1 -22 4 -3 6 -19 8 -35 5 -17 -3 -29 -1 -29 4 0 14 50 32 69 25
10 -3 8 2 -5 13 -26 22 -65 95 -70 131 -20 140 -15 298 9 323 7 7 24 31 38 53
27 41 177 183 214 203 22 11 133 39 180 45 61 8 82 7 140 -8z"/>
<path d="M35800 12275 c0 -2 12 -11 28 -19 82 -43 197 -168 267 -291 16 -27
32 -52 36 -55 17 -12 83 -199 74 -208 -7 -7 -47 40 -67 78 -33 63 -118 179
-168 230 -57 58 -160 133 -198 142 -27 7 -37 -6 -17 -22 8 -7 15 -17 15 -22 0
-6 14 -30 30 -55 33 -49 32 -64 -10 -156 -15 -33 -16 -43 -5 -64 12 -24 11
-77 -2 -113 -7 -18 -7 -18 1 -52 5 -21 3 -28 -8 -28 -21 0 -40 -38 -28 -53 6
-7 8 -25 5 -42 -2 -16 -5 -43 -7 -60 -2 -16 -8 -31 -15 -33 -6 -2 -11 -10 -11
-17 0 -7 -7 -15 -15 -19 -8 -3 -15 -15 -15 -27 0 -12 -9 -37 -21 -56 -12 -18
-18 -40 -15 -49 3 -8 -1 -17 -9 -21 -14 -5 -14 -7 0 -17 14 -10 14 -14 0 -44
-9 -17 -20 -32 -25 -32 -12 0 -19 -72 -9 -92 5 -10 5 -18 -1 -20 -6 -2 -11
-29 -13 -60 -1 -37 -6 -58 -14 -58 -18 0 -27 -20 -14 -33 6 -6 11 -19 11 -28
0 -20 64 -61 84 -53 8 3 17 1 20 -5 4 -5 21 -7 40 -4 44 7 54 -11 27 -48 -11
-15 -21 -32 -21 -37 0 -5 -7 -15 -15 -22 -12 -10 -19 -10 -27 -2 -15 15 -40
15 -73 0 -32 -14 -32 -24 0 -32 34 -9 31 -16 -17 -50 -42 -28 -113 -42 -125
-23 -3 5 -15 6 -27 3 -11 -2 -55 1 -96 8 -41 8 -76 12 -78 11 -5 -5 85 -43
132 -57 55 -15 58 -19 45 -58 -10 -28 -9 -38 6 -66 22 -40 64 -61 171 -85 44
-9 98 -25 119 -33 32 -14 36 -19 30 -38 -4 -13 -10 -43 -15 -68 -9 -52 -46
-160 -58 -172 -9 -9 -74 -1 -232 26 -194 33 -245 54 -255 103 -12 60 -21 78
-43 88 -14 6 -21 16 -19 27 3 9 -1 25 -8 35 -7 10 -18 36 -25 58 -37 120 -115
208 -305 349 -33 25 -71 54 -85 64 -27 21 -121 70 -183 95 l-37 16 -20 -39
c-11 -22 -25 -40 -31 -40 -6 0 -8 -9 -4 -21 4 -13 0 -27 -11 -40 -21 -23 -34
-24 -34 -4 0 8 -11 39 -25 67 -18 38 -24 61 -19 83 6 27 5 28 -10 16 -10 -9
-20 -10 -26 -5 -11 11 -1 64 12 64 43 0 -97 74 -161 85 -37 6 -43 5 -38 -8 6
-16 -27 -67 -44 -67 -5 0 -13 10 -18 22 -13 36 -24 2 -23 -76 1 -93 -4 -109
-28 -96 -10 6 -24 10 -30 10 -15 0 -3 -41 18 -60 17 -15 21 -66 7 -106 -6 -19
-2 -23 34 -29 23 -4 44 -12 48 -19 5 -7 24 -24 44 -39 46 -35 59 -22 59 59 0
67 6 74 59 74 15 0 32 5 39 12 9 9 12 8 12 -5 0 -12 8 -17 26 -17 16 0 24 -5
21 -12 -2 -7 -15 -13 -28 -13 -22 0 -25 -6 -20 -34 0 -5 17 -19 36 -31 26 -16
34 -27 30 -41 -4 -12 2 -26 19 -40 15 -13 26 -29 26 -36 0 -38 118 -120 162
-114 13 2 16 -2 12 -14 -4 -9 -13 -13 -24 -10 -9 3 -22 -1 -29 -8 -12 -16 -5
-74 11 -84 19 -11 78 -21 83 -13 2 4 -1 34 -7 67 -10 56 -9 63 11 97 24 38 63
56 90 39 37 -23 113 -130 127 -181 9 -30 26 -77 39 -105 20 -43 24 -70 25
-162 1 -60 -1 -142 -5 -181 l-7 -71 33 -21 c19 -11 56 -22 84 -24 45 -3 50 -1
56 22 4 14 18 54 30 90 33 101 34 120 5 174 -26 49 -34 86 -18 86 18 0 51 -46
54 -75 2 -25 9 -32 38 -40 40 -11 197 -166 206 -202 4 -14 14 -23 25 -23 10 0
19 -4 19 -9 0 -10 79 -51 98 -51 7 0 12 -7 12 -15 0 -8 -4 -15 -9 -15 -14 0
-61 -48 -61 -64 0 -9 15 -17 43 -21 23 -4 60 -12 82 -19 22 -7 55 -18 74 -24
25 -8 46 -9 78 0 38 9 46 8 57 -7 8 -11 20 -16 29 -12 16 6 31 -31 32 -83 0
-16 8 -29 23 -35 12 -5 22 -14 22 -20 0 -6 14 -26 31 -44 31 -34 27 -50 -10
-51 -30 0 -242 -67 -331 -105 -100 -42 -223 -120 -272 -173 -43 -46 -148 -212
-148 -234 0 -6 11 -21 25 -34 15 -14 22 -29 19 -38 -9 -22 4 -20 40 7 47 36
74 48 136 63 31 7 87 32 126 55 116 71 205 108 284 117 74 9 160 -2 160 -21 0
-5 9 -20 20 -34 26 -34 25 -41 -7 -45 -39 -4 -35 -29 7 -42 47 -15 76 -33 68
-42 -4 -4 -72 -28 -150 -54 -89 -29 -144 -52 -145 -61 -2 -13 78 -79 96 -79
14 0 171 -170 171 -185 0 -7 12 -22 27 -33 16 -11 24 -24 20 -29 -5 -4 -17 4
-28 19 -11 15 -33 29 -49 33 -17 4 -30 11 -30 16 0 5 -7 9 -15 9 -17 0 -20
-16 -5 -25 5 -3 7 -19 4 -34 -4 -16 -1 -32 5 -35 18 -12 12 -36 -9 -36 -24 0
-25 -9 -6 -55 12 -28 12 -36 2 -45 -16 -12 -46 -3 -46 15 0 19 -30 75 -41 75
-5 0 -8 8 -7 18 3 38 -3 52 -21 52 -26 0 -43 -24 -39 -57 2 -20 -1 -27 -12
-26 -36 5 -108 29 -122 40 -8 7 -38 19 -67 26 -29 7 -66 26 -84 42 -41 38 -84
65 -101 65 -7 0 -25 9 -39 20 -34 27 -66 25 -131 -7 -45 -22 -53 -29 -44 -41
10 -11 2 -24 -42 -66 -30 -29 -75 -74 -99 -101 l-44 -48 -61 23 c-111 40 -112
41 -137 14 l-22 -23 29 -12 c122 -49 197 -93 219 -129 14 -23 34 -40 47 -42
16 -2 26 -13 34 -38 12 -35 34 -53 34 -26 0 27 18 27 68 -3 27 -16 58 -32 70
-35 11 -4 37 -25 56 -46 20 -22 39 -40 42 -40 13 0 74 -54 74 -66 0 -7 -9 -18
-21 -25 -15 -8 -18 -14 -10 -22 6 -6 11 -19 11 -30 0 -10 5 -15 10 -12 6 4 28
-13 49 -37 l39 -43 24 23 c13 12 29 22 35 22 12 0 23 -23 23 -50 0 -9 7 -23
15 -30 8 -7 15 -18 15 -24 0 -14 -82 -52 -133 -61 -20 -4 -41 -15 -46 -24 -7
-12 -24 -16 -61 -16 -43 0 -55 4 -69 23 -45 65 -69 83 -160 119 -93 37 -95 39
-123 93 -15 30 -28 60 -28 66 0 6 -8 22 -19 35 -10 13 -25 44 -34 69 -8 24
-20 46 -26 48 -29 10 -44 -134 -16 -162 8 -8 15 -22 15 -31 0 -13 -5 -16 -22
-10 -13 4 -34 8 -48 9 -23 1 -27 -7 -64 -119 -21 -66 -45 -135 -53 -153 -8
-18 -25 -75 -38 -125 -13 -51 -31 -117 -41 -147 -22 -68 -23 -79 -28 -215 -2
-60 -7 -144 -11 -186 -4 -42 -4 -86 -1 -96 6 -20 61 -42 141 -58 71 -15 175
-55 175 -68 0 -6 7 -19 16 -28 13 -15 15 -24 6 -46 -5 -16 -13 -36 -16 -47 -5
-15 -9 -16 -22 -5 -9 7 -20 22 -25 34 -6 11 -20 37 -33 59 -18 28 -26 35 -32
25 -12 -19 -14 -101 -3 -115 5 -6 11 -46 14 -90 5 -76 11 -98 41 -155 7 -14
16 -60 20 -102 8 -94 13 -91 -111 -61 -33 8 -80 23 -105 33 -25 10 -58 24 -73
30 -19 7 -26 15 -20 24 4 6 6 22 4 34 -3 30 21 22 39 -13 13 -23 30 -33 30
-17 0 4 -6 25 -14 48 -8 22 -17 52 -20 68 -4 15 -13 27 -22 27 -11 0 -13 -6
-9 -19 3 -11 1 -22 -5 -26 -5 -3 -10 -16 -10 -28 0 -12 -11 -45 -24 -73 -19
-40 -28 -88 -41 -219 -9 -92 -14 -181 -11 -199 3 -17 8 -105 11 -196 5 -127 3
-190 -10 -275 -28 -189 -43 -229 -65 -167 -6 15 -17 39 -25 53 -8 15 -16 46
-18 70 -2 25 -9 55 -16 67 -7 12 -9 27 -6 32 4 6 1 26 -5 45 -6 20 -13 81 -15
138 -3 95 -5 103 -30 124 -41 36 -61 30 -70 -19 -4 -24 -9 -57 -9 -73 -1 -17
-5 -36 -10 -43 -4 -6 -2 -21 4 -32 8 -15 8 -25 1 -34 -8 -9 -8 -34 -2 -77 5
-35 7 -68 4 -72 -3 -5 2 -16 10 -25 9 -9 17 -36 19 -58 4 -36 13 -50 59 -93
30 -28 66 -56 82 -62 30 -12 32 -26 16 -79 -18 -60 -28 -201 -16 -234 12 -37
139 -223 168 -246 3 -3 17 -31 32 -62 25 -56 25 -58 6 -58 -13 0 -61 39 -122
100 -56 55 -108 99 -116 98 -17 -4 -120 -134 -151 -190 -11 -20 -36 -50 -56
-65 -20 -15 -50 -40 -66 -56 -16 -15 -33 -27 -38 -27 -13 0 -141 -91 -210
-150 -30 -25 -79 -63 -107 -84 -29 -21 -53 -43 -53 -50 0 -7 16 -31 36 -55 35
-40 36 -43 18 -56 -28 -21 -47 -19 -41 5 3 10 -2 25 -9 31 -12 10 -19 8 -33
-8 -11 -11 -21 -29 -23 -39 -2 -11 -13 -20 -26 -22 -16 -3 -20 -7 -14 -15 19
-24 23 -65 7 -71 -20 -7 -19 -24 5 -69 24 -44 22 -86 -5 -145 -30 -63 -52 -54
-97 38 -58 119 -91 170 -112 170 -10 0 -34 -14 -53 -30 -40 -35 -55 -37 -99
-9 -56 34 -204 257 -204 306 0 9 16 33 35 54 19 22 35 43 35 49 0 5 15 13 33
18 32 8 41 21 81 116 24 55 131 170 202 217 34 22 70 49 79 59 29 33 37 23 33
-40 -3 -61 1 -70 21 -46 6 7 25 16 40 19 21 4 30 13 33 29 2 12 17 30 36 41
40 24 47 18 56 -54 4 -27 10 -49 15 -49 5 0 11 26 14 58 6 74 45 142 81 142
30 0 44 17 48 60 2 27 8 36 26 38 12 2 29 16 37 33 21 39 39 37 72 -12 69
-102 108 -127 59 -38 -14 24 -25 60 -26 79 -1 19 -2 52 -3 73 -1 35 -3 38 -39
44 -31 4 -39 11 -44 32 -3 14 -12 49 -20 76 -8 28 -17 95 -21 151 l-6 100 48
72 c27 40 53 71 59 69 7 -2 10 -31 7 -80 -2 -52 2 -98 14 -141 14 -52 15 -71
6 -97 -7 -21 -8 -36 -1 -43 10 -10 17 3 22 44 2 16 10 26 23 28 11 2 30 16 41
30 l21 26 -29 40 -30 41 5 180 c4 157 10 202 41 349 20 93 40 195 45 225 6 31
17 94 25 141 23 124 24 120 -30 120 -25 0 -55 -5 -66 -11 -14 -8 -23 -8 -27
-1 -4 6 -6 77 -4 158 1 80 -3 200 -8 265 -13 156 -12 157 89 161 l77 3 -3 145
c-3 164 17 345 62 540 8 36 29 127 45 203 17 76 38 154 46 174 8 20 13 38 10
41 -2 3 -42 5 -88 5 -92 1 -146 -17 -172 -57 -60 -91 -94 -259 -95 -471 -1
-66 -5 -138 -10 -160 -4 -22 -14 -68 -21 -103 -9 -43 -19 -67 -32 -73 -34 -19
-76 -73 -71 -91 3 -10 1 -18 -4 -18 -17 0 -25 -62 -23 -157 3 -73 0 -94 -11
-98 -8 -3 -68 25 -134 63 -65 38 -157 90 -204 115 -47 26 -110 61 -140 78 -30
18 -125 70 -210 117 -85 46 -159 88 -165 92 -5 4 -41 25 -80 45 -152 83 -612
339 -648 362 -25 16 -46 40 -58 69 -11 24 -23 44 -28 44 -4 0 -29 14 -55 31
-45 30 -50 31 -87 20 -54 -16 -116 4 -226 75 -45 30 -85 54 -87 54 -3 0 -51
26 -108 58 -105 60 -146 83 -253 142 -33 18 -109 61 -170 95 -60 35 -222 126
-360 202 -137 77 -405 227 -595 333 -190 106 -446 249 -570 318 -124 69 -234
131 -245 138 -25 16 -597 335 -685 382 -36 19 -92 50 -125 69 -33 20 -141 80
-240 136 -240 133 -261 148 -269 191 -4 19 -14 37 -24 41 -17 7 -284 36 -507
55 -98 8 -207 19 -375 35 -30 3 -93 10 -140 16 -47 5 -134 13 -195 18 -72 5
-127 15 -160 29 -27 11 -75 23 -106 26 -48 5 -59 3 -75 -15 -10 -12 -32 -28
-48 -36 -27 -14 -30 -13 -65 14 -31 26 -50 31 -141 42 -106 12 -525 54 -720
71 -58 5 -148 14 -200 20 -52 6 -140 15 -195 20 -55 6 -143 14 -195 20 -52 6
-142 15 -200 20 -146 14 -279 27 -455 45 -82 9 -170 17 -195 19 -25 3 -142 14
-260 26 -118 12 -239 24 -268 26 -30 2 -61 5 -70 8 -9 3 -111 14 -227 26 -339
33 -416 40 -495 50 -41 5 -133 15 -205 21 -71 6 -143 18 -160 26 -16 8 -68 21
-113 29 l-84 13 -33 -34 c-39 -42 -61 -44 -108 -6 -32 25 -47 29 -134 35 -54
4 -150 13 -213 21 -104 12 -228 24 -320 30 -19 2 -60 5 -90 9 -1012 108 -1025
109 -1025 87 0 -7 119 -85 265 -171 146 -87 291 -175 324 -195 32 -20 73 -42
90 -48 17 -5 47 -22 66 -37 19 -15 60 -40 90 -55 30 -16 62 -34 71 -42 9 -7
45 -27 80 -44 56 -28 115 -63 199 -118 14 -10 54 -32 90 -50 36 -18 72 -39 80
-46 8 -6 71 -45 140 -85 69 -40 146 -88 171 -107 26 -18 50 -33 54 -33 5 0 50
-25 100 -55 51 -30 96 -55 101 -55 4 0 56 -31 114 -69 58 -38 195 -122 305
-186 110 -65 232 -138 270 -161 39 -23 129 -77 200 -120 72 -42 153 -92 180
-109 28 -18 113 -69 190 -114 339 -199 614 -368 643 -394 12 -12 21 -30 20
-42 -3 -18 1 -20 50 -17 48 3 61 -1 135 -44 45 -26 93 -57 107 -70 14 -12 81
-57 150 -99 69 -43 152 -94 185 -115 214 -133 293 -180 302 -180 6 0 16 -7 23
-15 7 -8 62 -44 124 -80 61 -37 143 -86 181 -110 39 -24 95 -58 125 -76 30
-18 62 -38 70 -44 8 -7 51 -33 95 -57 44 -25 154 -91 245 -148 222 -139 316
-196 435 -265 55 -32 129 -77 165 -101 36 -23 115 -71 175 -107 61 -35 139
-83 175 -105 36 -22 106 -64 155 -93 50 -29 144 -86 210 -127 66 -41 140 -86
165 -100 25 -14 108 -64 185 -112 77 -48 172 -105 210 -127 80 -46 392 -238
541 -333 132 -85 155 -106 147 -138 -5 -22 -3 -24 13 -17 70 29 66 29 145 -10
42 -20 99 -54 127 -76 44 -33 516 -322 676 -413 28 -16 119 -71 201 -121 83
-51 292 -177 465 -280 173 -103 355 -214 403 -246 49 -33 92 -59 96 -59 17 0
33 30 26 47 -25 65 -23 183 4 183 6 0 29 -28 52 -62 102 -152 127 -178 205
-214 41 -19 78 -34 82 -34 5 0 17 -9 28 -21 12 -13 26 -18 39 -15 16 4 37 -8
81 -49 57 -53 61 -55 117 -55 48 0 66 -5 100 -29 87 -59 103 -63 274 -74 104
-7 192 -7 248 -1 61 7 102 6 143 -3 31 -6 71 -12 89 -12 47 -1 214 -59 240
-83 17 -15 29 -19 50 -14 15 4 55 11 88 16 68 10 111 21 174 44 47 17 101 21
101 8 0 -5 -9 -17 -19 -26 -22 -20 -55 -95 -64 -143 -6 -31 -5 -33 24 -33 31
0 31 -1 24 -37 -4 -21 -7 -68 -7 -105 0 -38 -3 -68 -7 -68 -4 0 -5 -17 -2 -37
l4 -38 28 60 c15 33 28 68 28 78 1 11 7 33 15 50 8 18 17 52 20 77 17 138 29
159 79 146 26 -6 27 -10 27 -69 0 -53 5 -71 30 -110 38 -61 125 -143 173 -164
20 -9 37 -19 37 -23 0 -6 -62 -24 -144 -41 -28 -6 -65 -24 -85 -40 -20 -16
-41 -29 -47 -29 -7 0 -35 -23 -64 -51 l-52 -51 19 -27 c19 -25 44 -76 56 -113
8 -23 -8 -31 -34 -17 -16 8 -23 8 -28 0 -5 -8 -13 -7 -27 4 -31 24 -46 19 -39
-13 4 -22 0 -33 -20 -50 -14 -12 -28 -22 -31 -22 -3 0 -27 21 -54 47 -27 27
-64 60 -83 75 -27 21 -38 42 -55 101 -12 41 -28 80 -36 86 -7 6 -18 30 -24 54
-19 73 -34 281 -27 353 l8 68 -25 -16 c-14 -9 -42 -21 -64 -27 -30 -8 -45 -21
-67 -54 -59 -96 -70 -189 -37 -322 11 -44 22 -95 24 -112 2 -18 18 -63 35 -99
17 -36 31 -72 31 -79 0 -7 -42 -32 -94 -56 -74 -35 -98 -51 -112 -77 -10 -19
-24 -32 -33 -30 -24 5 -25 34 -1 56 l21 20 -32 11 c-38 13 -89 15 -89 2 0 -5
8 -12 17 -15 15 -6 15 -8 3 -16 -24 -15 -66 -11 -90 8 -24 19 -28 53 -15 104
6 24 4 28 -13 28 -11 0 -23 -7 -26 -16 -4 -11 -12 -14 -24 -9 -9 4 -31 7 -48
6 -20 -1 -40 7 -57 23 -28 26 -31 40 -27 113 2 39 -2 47 -38 79 -43 38 -72 96
-72 143 0 29 -31 50 -424 282 -110 65 -299 180 -376 229 -41 26 -104 64 -140
84 -36 20 -94 55 -130 78 -75 47 -457 279 -575 348 -44 26 -123 74 -175 106
-52 33 -124 77 -160 97 -36 21 -101 60 -145 88 -44 27 -89 54 -100 60 -11 5
-74 43 -140 84 -66 41 -172 105 -235 143 -315 190 -438 266 -463 290 -35 33
-59 76 -52 94 3 8 -15 27 -44 47 -40 27 -56 32 -78 27 -97 -25 -136 -14 -243
63 -36 26 -81 57 -100 68 -50 29 -452 275 -675 413 -237 146 -871 535 -1150
705 -115 71 -255 156 -310 190 -55 34 -154 95 -220 135 -66 40 -131 81 -145
90 -14 9 -45 29 -70 42 -25 14 -157 95 -295 180 -137 85 -291 179 -342 209
-145 85 -490 297 -578 355 -82 54 -121 101 -112 134 6 23 -4 31 -60 52 -33 13
-50 14 -76 6 -49 -15 -104 4 -204 71 -85 57 -140 91 -488 301 -88 54 -313 191
-500 305 -187 115 -475 290 -640 390 -308 187 -448 272 -975 595 -168 103
-363 222 -435 264 -71 43 -146 88 -165 101 -19 12 -100 62 -180 111 -189 116
-237 151 -250 188 -25 66 -17 63 -210 79 -36 3 -105 10 -155 16 -49 6 -157 18
-240 26 -359 36 -567 57 -660 65 -211 20 -292 32 -350 55 -33 12 -89 26 -125
29 l-65 6 -40 -49 c-22 -28 -45 -50 -52 -51 -7 0 -20 16 -29 35 -22 46 -32 51
-134 60 -47 5 -96 9 -110 11 -14 1 -97 10 -185 18 -88 9 -225 23 -305 31 -80
8 -253 26 -385 40 -132 14 -289 30 -350 35 -60 6 -168 17 -240 24 -71 8 -186
19 -255 26 -69 6 -179 18 -245 25 -66 8 -174 19 -240 25 -66 6 -131 13 -145
16 -14 2 -77 9 -140 14 -63 5 -153 14 -200 20 -47 5 -134 15 -195 20 -60 6
-164 17 -230 25 -66 8 -147 16 -180 19 -74 6 -463 43 -525 51 -25 3 -126 12
-225 21 -134 12 -199 22 -253 41 -44 15 -107 27 -156 30 -81 5 -82 5 -94 -21
-6 -15 -24 -31 -39 -37 -23 -8 -30 -6 -58 21 -35 34 -38 35 -345 60 -69 6
-181 17 -250 25 -69 7 -197 21 -285 30 -166 17 -471 50 -562 61 -67 8 -88 1
-74 -25 6 -11 118 -90 248 -177 131 -86 289 -191 351 -233 62 -42 127 -85 145
-95 18 -11 97 -63 175 -115 171 -114 185 -123 237 -151 22 -12 54 -34 70 -49
25 -24 79 -61 200 -141 108 -72 143 -95 165 -111 14 -10 68 -44 120 -76 52
-31 109 -68 125 -83 40 -35 102 -80 110 -80 4 0 44 -27 90 -60 46 -33 86 -60
90 -60 9 0 93 -58 125 -86 14 -12 57 -39 95 -60 39 -21 79 -48 90 -60 11 -12
97 -71 190 -132 94 -61 186 -124 206 -141 20 -17 39 -31 42 -31 12 0 162 -94
170 -106 7 -11 75 -59 136 -94 14 -9 44 -28 66 -43 134 -91 173 -119 200 -140
78 -62 233 -127 302 -127 37 0 41 -7 16 -26 -16 -12 -16 -15 -3 -24 8 -5 29
-10 45 -11 28 -2 48 -4 104 -12 14 -2 27 -9 29 -16 3 -9 -10 -12 -49 -10 -30
2 -62 -1 -72 -7 -16 -9 -11 -16 42 -54 33 -24 79 -55 104 -69 51 -31 183 -116
247 -161 116 -81 150 -102 210 -131 65 -32 100 -59 100 -78 0 -6 30 -29 68
-51 37 -23 76 -46 87 -53 41 -25 130 -91 133 -99 2 -4 9 -8 16 -8 6 0 58 -32
115 -71 58 -39 123 -79 146 -89 23 -10 52 -31 64 -46 13 -16 52 -47 87 -69 68
-43 282 -185 324 -216 78 -57 143 -100 189 -123 28 -15 51 -31 51 -36 0 -5 33
-31 73 -57 39 -27 74 -51 77 -54 3 -4 19 -15 36 -25 31 -19 176 -116 284 -191
31 -21 76 -48 100 -60 25 -11 56 -33 70 -48 14 -15 54 -47 90 -71 36 -24 74
-50 85 -57 11 -8 61 -40 110 -72 50 -32 113 -75 141 -96 28 -22 56 -39 61 -39
6 0 17 -7 24 -16 7 -9 22 -20 34 -25 11 -5 36 -21 55 -35 19 -14 48 -28 64
-31 16 -4 31 -14 34 -25 2 -10 69 -62 149 -116 192 -130 248 -168 335 -228
103 -71 175 -99 296 -114 75 -10 102 -17 102 -27 0 -11 -8 -13 -30 -8 -35 8
-41 -10 -7 -21 26 -9 59 -12 187 -18 52 -2 125 -7 163 -11 45 -4 67 -3 67 4 0
6 -3 11 -7 12 -71 6 -83 13 -62 34 11 11 22 13 44 5 17 -5 50 -13 75 -17 25
-5 44 -13 43 -18 -3 -20 19 -36 33 -24 8 6 12 15 9 19 -8 13 17 17 100 15 96
-3 195 -15 195 -24 0 -4 -5 -12 -11 -18 -7 -7 -1 -12 22 -17 38 -7 46 -2 30
18 -16 19 1 29 32 17 14 -5 27 -7 31 -4 10 10 184 1 248 -13 16 -3 25 -10 22
-18 -3 -7 2 -13 11 -13 10 0 13 6 10 17 -8 26 65 36 111 14 18 -9 34 -20 34
-23 0 -4 13 -8 28 -8 23 0 31 7 44 39 15 34 20 38 53 38 22 0 50 -10 73 -25
20 -14 46 -25 57 -25 11 0 31 -8 45 -17 22 -16 23 -16 17 0 -5 14 0 17 29 17
19 0 49 -7 66 -16 17 -9 52 -16 79 -16 55 1 80 -18 58 -44 -10 -13 -28 -15
-104 -10 -102 7 -118 -1 -140 -67 -13 -42 -54 -49 -88 -15 -13 13 -26 30 -28
37 -3 8 -34 14 -94 17 -50 2 -173 9 -275 15 -301 18 -309 18 -463 23 -82 3
-153 8 -158 12 -5 3 -51 8 -102 10 -50 3 -159 11 -240 19 -143 13 -207 8 -207
-15 0 -9 93 -78 118 -88 10 -3 52 -30 95 -59 42 -29 89 -59 105 -68 15 -8 47
-31 72 -50 25 -19 54 -40 65 -45 36 -19 60 -35 96 -62 19 -15 61 -39 92 -53
33 -14 62 -35 68 -47 10 -21 131 -108 233 -168 24 -14 59 -37 79 -52 20 -16
39 -28 42 -28 4 0 43 -26 88 -57 106 -75 139 -96 215 -133 35 -17 66 -40 70
-50 6 -16 254 -190 303 -213 8 -4 46 -30 84 -58 119 -86 208 -142 265 -165 30
-13 56 -30 58 -38 2 -9 34 -36 70 -60 37 -24 92 -61 123 -83 30 -21 62 -42 71
-48 77 -49 181 -118 231 -154 81 -58 145 -96 190 -110 24 -8 43 -23 52 -42 8
-15 25 -34 38 -40 28 -15 220 -141 227 -149 3 -3 52 -37 110 -76 58 -39 134
-91 170 -116 83 -58 113 -72 179 -88 41 -10 50 -15 37 -22 -9 -5 -16 -13 -16
-17 0 -5 39 -35 86 -67 48 -33 108 -74 133 -91 25 -18 70 -49 100 -69 30 -20
81 -63 114 -95 32 -32 63 -59 68 -59 5 0 9 -11 9 -25 0 -20 6 -25 38 -30 20
-4 46 -9 57 -13 11 -3 36 -7 55 -8 19 -1 139 -9 265 -18 127 -9 275 -16 330
-14 55 1 116 -1 135 -5 43 -8 504 -28 765 -32 105 -2 211 -8 237 -13 46 -9 47
-9 70 27 37 58 109 50 160 -19 14 -19 31 -30 46 -30 40 0 92 -46 92 -81 0 -24
-7 -32 -35 -46 -19 -9 -35 -22 -35 -29 0 -7 -4 -16 -10 -19 -14 -9 -50 13 -50
30 0 29 -42 36 -252 40 -117 3 -262 8 -323 11 -60 4 -144 8 -185 9 -41 1 -185
5 -320 9 -135 3 -269 9 -298 11 -29 2 -114 7 -190 10 -75 3 -190 10 -254 15
-72 6 -125 6 -140 1 -13 -6 -18 -10 -13 -10 6 -1 30 -20 55 -42 25 -23 77 -63
115 -90 39 -26 108 -75 155 -108 71 -50 221 -151 480 -324 25 -17 173 -117
330 -222 157 -106 317 -213 355 -238 39 -26 102 -68 140 -95 39 -28 222 -150
407 -273 383 -254 368 -244 480 -322 46 -31 94 -65 108 -74 193 -128 724 -485
923 -620 92 -63 216 -146 275 -185 59 -38 136 -90 172 -114 303 -205 431 -289
472 -310 l47 -24 2545 0 2544 0 6 77 c3 43 6 188 5 323 0 135 2 277 5 315 3
39 0 194 -6 347 -10 231 -9 325 4 574 9 184 12 312 6 336 -14 65 -15 245 0
259 10 10 12 -9 12 -97 0 -60 5 -127 11 -149 5 -22 14 -53 18 -70 16 -58 71
-160 108 -201 52 -56 269 -166 283 -144 5 8 10 19 10 23 0 10 -111 119 -175
171 -46 38 -47 40 -40 80 4 23 9 55 12 73 4 23 -3 45 -23 82 -27 47 -28 53
-16 93 7 24 31 111 53 193 22 83 44 164 48 180 12 41 117 251 130 260 6 3 11
17 11 30 0 13 4 27 10 30 5 3 18 25 28 48 10 23 26 48 35 56 10 7 17 20 17 27
0 7 11 21 24 29 13 9 27 28 31 43 9 38 34 62 63 62 22 0 24 -3 18 -34 -9 -45
11 -58 25 -17 9 24 17 31 38 31 20 0 31 7 39 25 14 30 37 34 29 5 -3 -12 -2
-34 3 -49 9 -32 -3 -62 -19 -46 -5 6 -11 18 -13 28 -3 18 -5 17 -93 -75 -33
-36 -46 -68 -25 -68 5 0 24 18 41 40 18 22 38 40 46 40 16 0 16 -3 -2 -47 -17
-40 -21 -173 -5 -173 6 0 16 11 22 25 6 14 15 25 20 25 16 0 8 -46 -26 -150
-19 -58 -44 -143 -57 -190 -12 -47 -32 -116 -45 -155 -85 -270 -142 -490 -129
-503 3 -3 8 3 11 13 3 11 13 38 23 60 l19 40 0 -50 c0 -54 16 -179 30 -236 5
-19 7 -50 4 -67 -2 -19 0 -32 6 -32 14 0 68 78 88 125 22 53 74 287 74 333 0
22 9 60 20 86 23 50 36 252 44 648 4 167 7 200 25 246 28 69 27 83 -9 117 -36
35 -38 45 -6 45 13 0 30 10 39 22 16 23 16 22 16 -14 1 -43 20 -52 22 -10 1
15 1 33 0 40 -1 6 7 12 18 12 11 0 22 4 25 9 10 16 56 19 56 4 0 -10 9 -13 28
-11 24 3 27 7 27 38 0 29 4 36 24 38 38 6 45 -11 23 -61 -22 -49 -19 -90 11
-161 25 -58 22 -80 -18 -107 -18 -13 -37 -34 -40 -47 -6 -25 17 -117 42 -167
13 -25 76 -115 105 -149 9 -11 179 -8 191 3 4 4 -26 75 -68 159 -41 83 -75
153 -75 155 0 3 -16 31 -35 63 -19 32 -35 62 -35 66 0 5 16 25 35 45 19 20 35
38 35 40 0 17 -24 44 -35 39 -8 -3 -16 3 -20 13 -7 22 9 109 23 123 18 18 34
-2 27 -33 -14 -61 21 -95 42 -40 10 28 79 81 106 81 7 0 29 -14 50 -31 l37
-30 0 24 c0 25 27 57 48 57 15 0 15 -18 0 -74 -15 -56 -6 -68 82 -108 36 -17
95 -52 133 -80 37 -27 86 -56 110 -63 23 -7 59 -20 79 -29 21 -9 49 -16 64
-16 31 0 94 -36 94 -54 0 -13 83 -86 99 -86 5 0 30 -19 55 -42 35 -33 43 -47
36 -58 -5 -8 -10 -30 -10 -47 0 -26 4 -33 19 -33 26 0 41 22 34 48 -8 33 19
28 40 -7 9 -16 17 -39 17 -52 0 -18 3 -20 12 -11 17 17 33 15 19 -2 -17 -21
-204 -14 -264 9 -42 16 -50 16 -116 1 -86 -20 -85 -20 -77 0 9 24 -23 64 -51
64 -15 0 -53 23 -99 60 -40 33 -79 61 -85 62 -6 2 -12 -10 -13 -27 -2 -31 10
-52 73 -126 35 -40 36 -41 87 -34 30 4 55 2 58 -4 3 -5 9 -36 12 -68 5 -44 1
-72 -13 -116 -20 -56 -15 -88 7 -47 13 25 30 26 30 2 0 -14 9 -18 41 -19 69
-3 76 -8 82 -65 4 -28 10 -54 15 -57 17 -12 32 -68 34 -129 1 -35 6 -66 10
-68 4 -3 8 -20 8 -39 0 -19 4 -36 9 -39 6 -4 8 -128 2 -178 -1 -3 -14 -11 -31
-17 -20 -7 -30 -17 -30 -30 0 -14 -7 -21 -19 -21 -27 0 -33 -14 -37 -79 -2
-30 -7 -57 -12 -59 -12 -4 -3 -42 9 -42 18 0 8 -27 -20 -54 -16 -15 -32 -28
-35 -27 -17 3 -20 0 -7 -8 10 -6 11 -17 5 -37 -4 -16 -8 -34 -9 -41 0 -7 -13
-25 -28 -41 -15 -15 -27 -32 -27 -36 0 -5 -11 -17 -25 -28 -14 -11 -25 -29
-25 -41 0 -16 -3 -18 -12 -9 -7 7 -15 12 -19 12 -10 0 -49 -77 -49 -96 0 -8
-20 -35 -45 -58 -25 -24 -45 -48 -45 -54 0 -6 -9 -14 -20 -17 -11 -4 -18 -11
-14 -16 3 -5 14 -7 25 -4 13 4 21 1 26 -11 10 -27 -41 -62 -91 -61 -23 0 -51
-5 -61 -11 -17 -9 -9 -11 43 -12 34 0 62 -4 62 -9 0 -6 -19 -40 -41 -76 -41
-65 -42 -67 -28 -107 7 -23 21 -43 31 -46 24 -6 23 -22 -1 -22 -22 0 -45 -25
-36 -40 9 -15 21 -12 48 13 25 23 50 89 41 111 -3 7 0 33 6 57 6 24 15 60 18
79 7 33 9 35 52 37 25 2 88 8 140 13 83 9 96 9 106 -5 8 -11 14 -12 19 -6 3 6
11 11 18 11 6 0 -7 -19 -30 -43 -46 -47 -63 -76 -63 -106 0 -11 -9 -25 -20
-31 -11 -6 -34 -34 -50 -63 -16 -29 -46 -63 -67 -77 -21 -13 -49 -35 -62 -47
-13 -13 -30 -23 -37 -23 -7 0 -18 -9 -24 -20 -7 -13 -21 -20 -41 -20 -49 0
-86 -25 -99 -67 -34 -106 -73 -70 -71 65 0 39 -3 72 -8 72 -5 0 -6 20 -3 45 2
25 0 45 -5 45 -20 0 -33 -27 -33 -70 0 -26 -7 -69 -15 -96 -28 -91 -15 -267
21 -281 8 -3 14 -16 14 -28 0 -13 3 -25 8 -27 4 -2 14 -16 22 -33 l16 -30 109
-3 c61 -1 119 2 130 7 11 5 28 12 38 15 12 4 17 16 17 44 0 32 5 41 25 50 14
6 25 20 25 29 0 18 57 53 84 53 13 0 19 6 103 120 36 48 55 66 76 68 17 2 27
-1 27 -9 0 -18 -38 -125 -66 -185 -13 -29 -26 -67 -28 -85 -3 -19 -10 -51 -15
-71 l-9 -38 988 0 989 0 23 42 c13 24 30 44 38 46 9 1 51 -18 95 -43 l80 -45
3875 0 3875 0 -65 34 c-100 51 -279 151 -730 404 -74 42 -178 99 -230 127 -52
28 -210 116 -350 195 -140 78 -343 191 -450 250 -107 59 -247 137 -310 172
-374 210 -495 277 -585 326 -55 29 -104 57 -110 62 -5 4 -46 28 -90 52 -424
235 -582 323 -715 398 -85 48 -233 131 -327 184 -266 148 -321 187 -339 240
-8 25 11 36 63 36 58 0 89 -15 444 -215 172 -98 386 -219 474 -268 88 -49 241
-135 340 -192 159 -91 488 -277 600 -340 22 -12 76 -42 120 -65 44 -24 154
-86 245 -140 91 -53 291 -168 445 -255 154 -87 393 -222 530 -300 138 -79 268
-153 290 -165 22 -12 225 -127 450 -255 553 -313 501 -287 566 -283 l54 3
-140 79 c-504 285 -821 465 -890 506 -44 26 -111 64 -150 85 -171 94 -760 429
-915 521 -57 33 -100 91 -100 132 0 24 35 48 83 57 45 9 136 -32 247 -110 41
-28 98 -65 125 -80 67 -37 192 -110 415 -242 102 -61 217 -127 255 -148 39
-21 95 -54 125 -73 30 -19 129 -78 220 -130 91 -52 181 -104 200 -117 19 -12
114 -69 210 -125 96 -56 261 -153 365 -214 105 -62 206 -120 225 -130 33 -16
156 -17 1922 -14 l1886 3 -210 115 c-116 63 -227 124 -247 135 -20 11 -65 36
-101 56 -36 20 -144 79 -240 132 -96 52 -312 170 -480 262 -168 93 -378 208
-468 257 -470 255 -468 254 -421 319 28 40 67 38 154 -9 85 -46 543 -303 675
-380 439 -254 650 -374 865 -494 138 -78 329 -187 425 -243 176 -103 234 -135
245 -135 3 0 5 51 5 114 l0 113 -38 7 c-37 5 -119 45 -232 111 -30 17 -116 62
-190 100 -74 37 -169 87 -210 110 -41 24 -109 60 -150 82 -253 134 -298 161
-331 195 -26 28 -44 38 -66 38 -41 0 -98 21 -160 59 -27 17 -55 31 -61 31 -7
0 -36 16 -67 35 -30 20 -63 39 -73 42 -9 4 -39 21 -67 39 -27 17 -102 58 -165
92 -63 33 -158 83 -210 112 -52 29 -138 75 -190 102 -133 70 -132 70 -86 117
50 51 84 56 156 22 30 -15 62 -31 70 -36 8 -5 22 -10 30 -12 8 -1 23 -13 33
-27 10 -14 23 -26 27 -26 5 0 26 -11 46 -25 21 -14 49 -28 63 -32 14 -3 54
-24 89 -45 34 -21 65 -38 68 -38 3 0 18 -8 32 -19 15 -10 65 -39 112 -64 203
-107 274 -147 290 -162 9 -8 24 -15 32 -15 9 0 33 -19 54 -42 43 -49 85 -71
129 -70 17 1 46 -7 65 -18 19 -10 55 -29 80 -40 25 -12 54 -30 65 -40 11 -10
72 -46 135 -81 129 -70 387 -214 410 -230 8 -5 44 -24 80 -42 36 -18 84 -45
107 -60 24 -15 46 -27 50 -27 5 0 19 -9 33 -20 14 -11 28 -20 33 -20 4 0 7
162 7 360 l0 360 -55 26 c-30 14 -59 32 -66 40 -6 8 -19 14 -28 14 -9 1 -34
12 -56 25 -22 13 -76 42 -120 64 -44 21 -96 50 -115 63 -19 12 -53 29 -75 37
-22 7 -47 19 -55 27 -9 7 -37 23 -63 34 -26 12 -47 27 -47 33 0 23 23 37 61
37 46 0 69 -8 69 -25 0 -14 43 -43 135 -90 33 -18 64 -41 70 -53 7 -15 19 -22
38 -22 26 0 116 -40 147 -66 15 -12 20 -14 39 -14 5 0 13 -9 16 -21 4 -11 12
-18 19 -16 7 3 23 -1 37 -9 13 -7 30 -13 37 -14 9 0 12 162 12 780 l0 779 -29
43 c-20 29 -48 53 -87 73 -69 36 -99 80 -89 131 7 40 -9 75 -57 124 -44 45
-49 62 -33 94 9 17 10 28 3 32 -6 4 -8 22 -4 45 6 35 4 39 -19 45 -13 3 -46 3
-72 0 -27 -3 -70 -7 -98 -9 -27 -1 -61 -10 -75 -19 -26 -18 -70 -18 -92 -1 -7
5 -24 10 -37 11 -14 0 -33 9 -43 19 -16 17 -17 24 -7 68 6 28 12 73 13 100 l1
50 -48 3 c-27 2 -55 -2 -62 -8 -10 -8 -21 -7 -44 4 -16 9 -37 16 -46 16 -22 0
-18 31 8 61 38 43 46 65 48 139 2 59 -1 74 -14 82 -10 5 -17 19 -17 31 0 12
-11 42 -25 66 -29 50 -31 73 -10 104 13 20 13 27 -3 60 -9 20 -24 36 -34 37
-9 0 -30 11 -46 25 -39 33 -107 35 -117 5 -8 -24 -13 -25 -54 -4 -18 9 -41 14
-52 11 -10 -3 -22 -1 -25 4 -3 5 -14 9 -25 9 -11 0 -31 7 -45 16 -21 14 -31
15 -64 5 -62 -18 -74 -45 -67 -148 4 -63 10 -92 24 -112 11 -14 28 -50 37 -78
10 -29 22 -55 27 -58 17 -11 10 -64 -11 -77 -11 -7 -20 -18 -20 -25 0 -6 -13
-14 -29 -18 -16 -3 -41 -17 -54 -29 -52 -49 -101 -44 -111 10 -7 35 -30 54
-67 54 -12 0 -37 9 -55 21 l-33 20 -51 -40 c-29 -23 -57 -41 -64 -41 -7 0 -42
-16 -80 -35 -62 -32 -73 -34 -137 -30 -132 9 -154 8 -186 -8 -18 -10 -46 -37
-63 -62 -17 -25 -37 -45 -44 -45 -8 0 -26 -6 -40 -14 -31 -16 -112 -14 -143 2
-32 17 -103 39 -150 47 -34 5 -44 3 -49 -9 -3 -8 -14 -18 -24 -21 -10 -3 -35
-31 -56 -63 -53 -79 -92 -115 -117 -108 -12 3 -35 -4 -54 -15 -19 -12 -41 -18
-52 -14 -10 3 -32 7 -47 10 -60 8 -117 24 -124 35 -5 8 -19 10 -41 5 -57 -12
-66 -21 -72 -74 -3 -27 -12 -58 -18 -69 -10 -16 -10 -26 -1 -46 6 -13 8 -40 5
-59 -4 -24 0 -43 11 -58 20 -30 21 -98 1 -126 -19 -28 -82 -58 -111 -55 -12 2
-25 -2 -29 -8 -10 -17 -37 25 -34 53 2 12 0 27 -3 33 -4 6 -10 26 -13 44 -3
18 -9 38 -12 44 -4 6 -9 26 -13 45 -3 24 -13 39 -29 47 -12 7 -39 28 -60 48
-39 38 -122 71 -139 54 -6 -6 -18 -6 -32 2 -14 7 -25 8 -33 2 -7 -6 -22 -12
-35 -14 -22 -3 -41 -37 -82 -146 -10 -26 -18 -32 -41 -32 -16 0 -29 5 -29 12
0 6 -10 32 -22 59 -20 40 -27 47 -51 46 -15 0 -30 -4 -33 -9 -3 -4 -18 -8 -33
-8 -25 0 -71 -35 -71 -54 0 -22 -61 -134 -84 -156 -22 -20 -30 -22 -44 -12 -9
7 -27 16 -39 22 -12 5 -29 21 -39 34 -14 23 -87 56 -98 45 -2 -2 -6 -23 -7
-46 -3 -34 1 -46 22 -66 15 -13 29 -40 33 -60 6 -33 3 -41 -23 -67 -16 -17
-36 -30 -44 -30 -8 0 -17 -9 -20 -20 -3 -13 -14 -20 -29 -20 -12 0 -30 -5 -38
-10 -20 -14 -15 -18 225 -157 307 -178 349 -201 720 -398 117 -62 392 -216
570 -318 77 -44 219 -123 315 -175 264 -143 328 -182 360 -219 58 -65 47 -113
-24 -113 -54 0 -91 16 -238 103 -79 46 -190 109 -248 139 -58 31 -206 111
-330 178 -124 67 -333 181 -465 252 -132 72 -280 152 -329 180 -48 27 -111 62
-140 77 -28 16 -118 65 -201 111 -82 46 -179 99 -215 118 -36 19 -114 63 -175
97 -60 34 -137 77 -170 95 -85 47 -108 62 -126 85 -71 86 -71 86 -153 96 -64
7 -90 16 -149 50 -40 23 -94 54 -122 69 -27 15 -68 38 -90 50 -22 13 -65 37
-95 53 -117 62 -520 282 -610 332 -52 29 -117 65 -145 80 -27 15 -72 40 -100
55 -27 15 -84 46 -125 68 -172 92 -326 186 -370 227 -32 30 -68 43 -157 60
-18 4 -67 29 -110 57 -42 27 -87 54 -101 59 -14 5 -36 18 -51 28 -14 10 -64
39 -111 64 -47 24 -104 55 -128 68 -24 13 -57 43 -75 67 -63 85 -55 80 -145
85 -92 5 -111 13 -332 139 -63 36 -153 85 -200 110 -47 25 -107 58 -135 73
-27 15 -88 48 -135 73 -168 89 -186 99 -225 122 -22 12 -78 43 -125 67 -47 25
-139 74 -205 110 -66 36 -165 90 -220 120 -55 30 -107 59 -115 63 -8 5 -61 34
-117 64 -56 31 -121 67 -145 79 -47 26 -166 91 -238 129 -135 72 -213 123
-240 159 -62 77 -73 81 -248 85 -271 7 -435 15 -490 24 -42 8 -60 6 -82 -5
-34 -18 -161 -20 -177 -4 -14 14 -232 26 -598 34 l-270 6 -6 47 c-4 26 -4 66
-1 90 2 24 -1 60 -8 81 -11 33 -10 42 8 77 32 64 54 180 59 319 4 108 10 145
33 215 24 69 30 107 33 204 4 110 2 124 -24 200 -16 44 -29 95 -29 111 -1 39
-47 148 -90 209 -18 27 -60 78 -94 115 -63 66 -126 153 -126 172 0 20 -31 69
-80 125 -31 35 -72 102 -107 173 -82 169 -134 238 -314 416 -194 193 -257 258
-275 284 -14 19 -154 122 -204 150 -14 8 -56 41 -95 74 -62 53 -71 65 -77 105
-4 26 -23 68 -47 104 -22 33 -54 100 -72 149 -39 109 -68 139 -135 139 -69 0
-80 11 -109 102 -37 116 -41 159 -21 212 20 51 24 153 8 183 -6 11 -9 23 -5
26 3 3 -2 38 -12 77 -13 54 -15 77 -7 93 6 12 13 56 15 97 3 41 12 108 22 149
12 56 14 80 6 103 -9 26 -7 36 10 65 11 18 24 45 28 60 6 24 15 28 107 48 107
25 160 49 212 98 22 21 31 39 30 56 -1 15 4 36 10 48 23 43 12 93 -31 141 -27
29 -39 28 -27 -4 21 -55 3 -74 -27 -28 -10 15 -18 49 -19 78 -13 437 -26 561
-73 702 -55 163 -150 292 -280 379 -36 25 -101 69 -145 100 -43 30 -141 86
-217 125 -136 69 -149 75 -149 65z m-21145 -1138 c59 -18 171 -83 194 -113 28
-36 28 -84 1 -84 -23 0 -84 31 -175 88 -45 28 -63 46 -71 72 -18 53 -12 57 51
37z m20291 -683 c19 -9 34 -22 34 -30 0 -7 12 -21 26 -31 14 -9 37 -34 51 -56
14 -22 33 -42 44 -44 10 -3 19 -11 19 -18 0 -30 -13 -75 -22 -75 -11 0 -47 41
-48 54 0 4 -14 30 -31 56 -20 31 -55 64 -104 96 l-74 49 32 6 c18 4 34 7 35 8
2 0 19 -6 38 -15z m-18671 -1460 c73 -8 87 -9 173 -12 40 -2 52 -6 52 -18 0
-13 3 -14 15 -4 19 15 45 6 45 -16 0 -14 7 -16 36 -11 22 4 50 1 69 -8 19 -7
35 -11 38 -9 3 3 42 0 88 -6 46 -7 91 -11 99 -11 8 0 37 1 64 1 39 0 47 3 43
14 -10 25 55 15 76 -11 27 -33 33 -29 29 20 -7 85 58 103 133 37 20 -18 58
-28 130 -33 22 -2 54 -11 72 -20 18 -9 50 -17 71 -17 41 0 69 -20 57 -40 -7
-11 -172 -7 -183 5 -3 3 -10 -5 -16 -18 -6 -12 -26 -28 -44 -36 -17 -8 -32
-21 -32 -28 0 -19 -30 -16 -37 5 -7 21 -64 82 -76 82 -4 0 -6 -9 -2 -19 5 -18
3 -19 -27 -10 -18 5 -46 9 -63 8 -37 -1 -175 8 -280 20 -44 5 -83 7 -86 5 -4
-2 -45 2 -90 9 -46 8 -106 15 -134 16 -117 4 -609 55 -652 67 -39 11 -25 21
38 28 40 4 67 2 75 -5 8 -7 27 -9 44 -5 17 3 39 0 50 -6 19 -12 24 -11 90 27
14 8 34 12 45 10 11 -2 52 -7 90 -11z m20230 -49 c136 -29 165 -43 186 -89 10
-22 43 -67 74 -100 49 -52 68 -86 48 -86 -7 0 -216 36 -271 46 -25 5 -44 23
-102 95 -33 41 -73 133 -62 144 9 9 54 5 127 -10z m-18440 -144 c72 -6 153
-13 180 -16 28 -2 77 -7 110 -10 33 -3 101 -10 150 -16 50 -6 122 -12 160 -13
125 -5 326 -25 342 -35 9 -5 32 -7 52 -4 20 2 61 1 91 -4 31 -5 67 -6 81 -3
14 4 72 -1 130 -12 57 -10 163 -21 234 -24 72 -3 146 -7 165 -9 19 -1 71 -6
115 -9 44 -4 87 -8 95 -11 21 -6 171 -17 255 -19 39 -1 76 -5 83 -10 7 -4 74
-10 149 -12 75 -2 141 -9 148 -14 7 -6 28 -10 46 -10 103 2 138 -1 171 -13 21
-7 59 -12 85 -9 27 2 57 3 68 2 11 -1 61 -3 111 -5 50 -1 97 -6 103 -10 7 -4
27 -4 45 -1 40 8 86 -8 86 -28 0 -16 -34 -31 -50 -21 -9 5 -86 13 -210 19
-148 8 -272 18 -335 27 -38 6 -79 10 -90 10 -11 0 -72 4 -135 10 -63 6 -158
15 -210 20 -52 5 -171 11 -265 15 -93 3 -175 10 -181 15 -6 5 -58 12 -115 15
-61 4 -113 13 -126 21 -15 10 -23 11 -28 3 -5 -8 -24 -9 -54 -6 -25 3 -91 8
-147 11 -55 2 -123 9 -149 15 -27 6 -106 13 -175 16 -69 2 -143 6 -165 9 -22
2 -85 9 -140 15 -55 6 -131 13 -170 15 -38 3 -92 7 -120 9 -27 2 -95 8 -150
12 -55 5 -116 7 -135 6 -19 -1 -75 5 -125 13 -49 7 -128 16 -175 20 -130 8
-253 27 -238 36 16 10 255 4 433 -10z m4074 -235 c15 -8 33 -21 40 -30 7 -8
27 -18 44 -21 18 -4 42 -16 54 -27 17 -16 25 -18 42 -8 17 9 28 8 53 -4 17 -9
46 -16 64 -16 18 0 35 -4 38 -9 9 -13 -52 -25 -67 -13 -7 6 -33 8 -59 5 -43
-5 -48 -9 -72 -53 -14 -26 -35 -50 -45 -53 -27 -7 -59 18 -75 58 -10 23 -26
39 -52 50 -42 17 -58 19 -49 5 3 -5 15 -10 25 -10 10 0 21 -4 25 -10 7 -11
-154 -5 -292 12 -51 6 -118 12 -150 13 -32 1 -115 6 -185 10 -112 7 -128 10
-128 26 0 14 11 18 58 21 36 3 62 0 72 -8 10 -9 21 -10 30 -4 8 5 23 7 33 4
18 -6 159 -15 211 -14 15 0 33 -4 40 -8 6 -6 39 -6 76 -2 35 5 69 6 74 2 6 -3
29 -7 51 -8 40 -3 41 -2 37 26 -3 21 3 36 21 54 30 30 47 32 86 12z m721 -175
c25 -5 56 -9 70 -10 60 -2 84 -7 88 -18 5 -16 39 -17 44 -1 3 9 16 8 53 -2 45
-13 47 -14 23 -21 -14 -3 -61 -3 -104 2 -44 5 -99 11 -124 13 -39 4 -74 10
-90 16 -6 3 -150 9 -212 9 -49 0 -67 17 -25 23 42 6 232 -1 277 -11z m12511
-20 l24 -19 -88 -87 c-48 -47 -87 -93 -87 -102 0 -11 -5 -13 -17 -8 -10 4 -30
10 -45 13 -16 2 -28 9 -28 15 0 13 156 177 185 194 27 16 29 16 56 -6z m-9258
-130 c14 -6 33 -18 44 -29 10 -10 37 -24 60 -31 53 -15 90 -49 85 -77 -4 -29
-40 -60 -79 -69 -27 -5 -37 -1 -71 29 -22 20 -46 36 -55 36 -9 0 -32 9 -51 21
-29 17 -36 27 -36 52 0 34 34 77 61 77 10 0 29 -4 42 -9z m-645 -36 c33 -6 46
-14 53 -33 12 -31 7 -36 -39 -35 -205 3 -276 18 -278 60 -1 20 2 21 110 18 61
-1 130 -6 154 -10z m10158 -57 c30 -29 34 -37 28 -65 -5 -23 -14 -35 -35 -42
-16 -5 -43 -26 -60 -45 -17 -20 -37 -36 -45 -36 -27 0 -22 -5 86 -100 l25 -22
-30 17 c-16 10 -39 25 -50 35 -11 10 -40 30 -65 45 -75 45 -75 48 -9 112 32
31 66 73 76 94 9 22 23 39 30 39 7 0 29 -15 49 -32z m682 -134 c12 -8 22 -26
22 -40 0 -27 -14 -35 -145 -79 -160 -54 -150 -54 -190 -15 -28 27 -33 37 -23
46 19 17 259 101 298 103 9 1 26 -6 38 -15z m841 -63 c48 -5 57 -10 73 -37 10
-17 15 -39 12 -48 -6 -15 -20 -16 -128 -11 -200 10 -202 10 -219 53 -24 60
-18 62 102 56 58 -4 130 -9 160 -13z m-6656 -52 c12 -6 33 -22 47 -34 14 -12
37 -25 51 -28 45 -11 79 -45 79 -80 0 -74 -89 -103 -157 -51 -19 14 -50 30
-70 36 -43 12 -83 52 -83 85 0 14 13 37 29 54 31 31 67 37 104 18z m5244 -490
c8 -57 17 -119 20 -138 4 -23 0 -46 -12 -68 -19 -34 -35 -35 -35 -3 0 10 -4
22 -10 25 -13 8 0 -58 13 -66 5 -4 7 -17 4 -30 -7 -33 -75 -191 -87 -203 -19
-19 -23 28 -10 141 11 90 11 125 2 159 -7 25 -12 52 -12 62 0 10 -9 35 -19 55
-19 38 -19 38 2 62 42 47 77 93 77 102 0 5 5 14 12 21 23 23 39 -13 55 -119z
m1427 72 c25 -21 39 -135 33 -260 -7 -130 -25 -272 -35 -283 -4 -4 -36 -4 -71
-1 -59 6 -64 8 -76 37 -7 17 -16 60 -19 94 -4 35 -12 76 -17 90 -6 15 -17 50
-24 77 -8 28 -26 90 -40 140 -14 49 -25 95 -25 102 0 16 47 21 162 19 57 -2
103 -8 112 -15z m-877 -403 c17 -24 23 -44 18 -57 -7 -24 -60 -55 -79 -48 -14
6 -36 122 -36 184 l1 38 36 -40 c19 -22 46 -57 60 -77z m-1233 -690 c9 -12 16
-30 16 -39 0 -8 11 -22 25 -29 14 -8 23 -20 21 -27 -3 -7 3 -32 13 -55 10 -24
18 -64 18 -89 0 -26 3 -51 7 -58 4 -6 4 -16 1 -22 -9 -14 -45 24 -45 48 0 10
-10 27 -21 37 -16 13 -18 21 -10 29 16 16 13 31 -3 18 -18 -15 -32 8 -42 67
-6 39 -25 59 -45 46 -5 -3 -9 8 -9 24 0 26 3 29 23 25 18 -5 20 -3 10 8 -7 7
-13 19 -13 26 0 21 38 15 54 -9z m460 -37 c4 -5 9 -38 13 -73 6 -59 5 -62 -11
-49 -40 33 -52 -51 -20 -140 16 -43 17 -58 6 -117 -6 -37 -16 -84 -22 -104
-10 -36 -13 -38 -51 -38 -25 0 -42 5 -45 15 -3 8 -1 65 6 127 6 62 15 156 20
208 5 52 17 114 25 138 14 36 21 42 45 42 16 0 31 -4 34 -9z m2588 -281 c-3
-27 -9 -40 -19 -40 -12 0 -14 -7 -9 -30 3 -19 -1 -48 -11 -73 -10 -27 -18 -92
-23 -179 -3 -76 -9 -141 -13 -145 -9 -8 -152 11 -189 25 -27 11 -27 11 -12 49
9 21 31 58 50 82 19 24 34 54 34 66 0 14 8 25 20 28 23 6 27 27 5 27 -20 0
-19 48 0 74 8 11 15 32 15 46 0 15 14 46 30 68 28 39 33 42 78 42 l48 0 -4
-40z m-15974 15 c3 -2 -1 -11 -8 -20 -7 -9 -10 -19 -6 -22 4 -4 47 -8 95 -10
82 -2 89 0 94 18 5 17 12 20 44 17 45 -5 49 -21 7 -28 -27 -6 -27 -6 14 -13
42 -7 79 3 93 26 10 15 42 -1 36 -17 -9 -24 64 -38 78 -16 9 15 41 12 56 -6 8
-10 21 -13 37 -9 13 3 47 1 76 -4 28 -6 103 -13 166 -16 63 -3 178 -10 255
-15 77 -6 174 -12 215 -15 41 -2 122 -7 180 -11 58 -3 148 -8 200 -10 147 -5
234 -11 250 -18 8 -3 74 -8 145 -10 111 -4 326 -20 375 -28 22 -4 103 13 117
24 7 6 14 4 20 -6 9 -17 114 -33 278 -42 61 -3 133 -7 160 -10 28 -2 84 -6
125 -8 41 -2 104 -6 140 -10 114 -11 209 -16 565 -32 44 -2 88 -4 98 -4 65 -4
107 3 107 17 0 10 6 13 16 9 9 -3 29 -6 45 -6 19 0 29 -5 29 -15 0 -9 10 -15
28 -16 53 -3 72 -6 84 -16 15 -12 68 -26 68 -18 0 3 -11 10 -25 15 -48 18 -44
106 6 124 36 12 77 0 108 -33 26 -27 52 -36 142 -45 20 -2 45 -9 57 -15 11 -6
36 -11 56 -11 38 0 54 -14 37 -34 -15 -18 -122 -8 -138 13 -11 14 -12 14 -13
-5 0 -11 -7 -29 -15 -40 -8 -10 -15 -28 -15 -40 0 -28 -19 -44 -52 -44 -29 0
-68 30 -68 53 0 7 -6 22 -14 32 -10 15 -17 17 -27 8 -10 -7 -44 -8 -114 -2
-55 4 -174 10 -265 13 -91 3 -192 10 -225 16 -33 5 -127 12 -210 15 -82 3
-179 7 -215 9 -36 3 -149 9 -252 15 -103 5 -191 11 -195 14 -4 2 -64 8 -133
11 -69 4 -204 11 -300 17 -96 7 -218 13 -270 15 -52 2 -120 6 -150 8 -30 3
-93 7 -140 10 -312 19 -616 38 -805 51 -121 9 -260 18 -310 20 -49 2 -142 7
-205 11 -63 3 -158 7 -210 9 -52 2 -140 8 -195 13 -55 6 -166 14 -247 18 -107
5 -151 11 -159 21 -19 23 -2 28 104 31 56 1 112 5 125 7 27 6 29 25 3 25 -22
0 -34 13 -23 24 7 7 61 0 70 -9z m11916 -190 c-9 -71 -32 -163 -53 -210 -31
-68 -88 -245 -112 -346 -21 -87 -22 -105 -12 -175 12 -86 56 -288 80 -371 16
-57 10 -111 -13 -120 -8 -3 -17 -3 -19 -1 -3 2 -14 49 -24 104 -55 277 -63
510 -22 614 12 29 36 97 53 150 16 52 41 124 55 160 13 36 27 94 29 130 6 81
24 146 36 128 5 -7 6 -35 2 -63z m2372 50 c7 -17 -42 -359 -65 -460 -16 -68
-18 -70 -46 -68 -63 3 -281 23 -327 29 -38 5 -48 10 -44 23 3 9 8 61 11 116 4
55 11 132 16 170 6 39 13 96 16 128 l5 57 47 1 c52 0 134 9 140 15 2 2 58 4
123 4 96 0 120 -3 124 -15z m1361 -201 c6 -17 -24 -504 -34 -537 -4 -16 -11
-17 -46 -12 -23 4 -44 9 -45 10 -2 2 3 65 12 141 9 75 16 155 16 178 1 23 9
81 18 130 14 70 22 91 37 97 30 11 35 10 42 -7z m-10522 -39 c61 -5 356 -17
405 -16 19 0 42 -2 50 -6 16 -7 34 -10 93 -16 41 -5 52 -11 43 -25 -3 -5 -29
-5 -58 -2 -29 4 -58 3 -64 -2 -7 -5 -29 -5 -56 1 -39 9 -120 15 -363 26 -129
6 -280 15 -310 19 -16 2 -47 4 -67 5 -54 2 -47 19 10 24 51 3 236 -1 317 -8z
m3235 -70 c16 -8 34 -24 39 -34 6 -10 26 -22 45 -25 85 -16 113 -83 54 -130
-18 -15 -38 -31 -45 -36 -19 -15 -43 -12 -50 7 -11 27 -55 62 -94 73 -20 5
-48 21 -63 35 -73 67 21 158 114 110z m-1275 -60 c60 2 114 1 120 -3 5 -4 35
-8 65 -9 30 -1 64 -3 75 -4 11 -1 46 5 77 14 41 11 90 15 178 12 115 -3 123
-5 149 -29 20 -19 39 -26 80 -28 30 -2 56 -9 58 -15 4 -12 -426 -11 -446 2
-11 6 -240 19 -311 17 -19 -1 -48 3 -65 8 -16 5 -76 12 -133 15 -57 2 -109 8
-115 12 -17 12 60 19 113 12 25 -4 94 -5 155 -4z m5429 -675 c136 -46 215 -87
220 -113 24 -117 7 -215 -35 -202 -21 7 -27 -11 -6 -18 9 -3 8 -9 -4 -23 -20
-23 -29 -63 -30 -129 -1 -28 -4 -54 -6 -58 -7 -11 -43 23 -43 40 0 7 -8 13
-17 13 -45 0 -124 190 -142 342 -6 53 -16 109 -21 123 -9 24 -13 55 -7 55 1 0
42 -14 91 -30z m3600 -234 c94 -51 155 -97 170 -128 9 -17 26 -24 81 -34 74
-12 126 -37 283 -136 51 -32 95 -58 98 -58 3 0 18 -8 32 -18 15 -11 52 -33 82
-49 30 -17 127 -72 215 -123 88 -51 179 -103 203 -116 97 -54 151 -84 237
-135 50 -28 110 -63 135 -77 25 -14 205 -116 400 -227 195 -111 380 -216 410
-233 89 -49 361 -206 411 -237 43 -26 89 -90 89 -124 0 -55 -96 -69 -180 -26
-27 14 -106 59 -175 100 -70 41 -128 75 -130 75 -3 0 -42 22 -87 48 -46 27
-128 74 -183 104 -55 31 -154 86 -220 123 -66 37 -140 79 -165 93 -25 14 -245
137 -490 275 -245 137 -470 264 -500 282 -30 17 -113 64 -185 103 -258 142
-306 174 -351 232 -24 30 -48 54 -54 52 -28 -6 -144 21 -192 46 -46 24 -53 31
-56 61 -5 46 18 171 30 171 6 0 48 -20 92 -44z m-2909 -23 c-9 -65 -52 -289
-65 -335 -18 -63 -130 -216 -130 -177 0 8 11 54 25 103 13 48 33 143 45 210
40 242 37 234 79 239 20 2 40 4 44 5 5 1 5 -19 2 -45z m4109 -114 c15 -12 32
-32 36 -45 5 -13 16 -24 24 -24 16 0 29 -41 20 -64 -7 -19 -64 -36 -124 -36
-54 0 -106 29 -120 66 -14 37 -13 40 26 84 30 33 43 40 74 40 23 0 48 -8 64
-21z m-1536 -54 c3 -2 -1 -41 -7 -87 -7 -46 -13 -130 -15 -188 -2 -58 -5 -108
-5 -113 -1 -4 -29 -7 -63 -6 -46 2 -80 10 -123 31 -33 15 -65 28 -72 28 -19 0
-26 20 -12 36 9 11 22 14 47 9 32 -6 39 -3 69 32 35 38 35 38 28 111 -4 48 -3
77 4 86 16 19 2 49 -20 43 -19 -5 -26 12 -11 27 7 8 172 -1 180 -9z m284 -83
c35 -21 99 -58 143 -82 104 -57 1060 -589 1220 -679 22 -13 85 -48 140 -78 55
-31 129 -73 165 -93 91 -53 458 -257 755 -420 694 -382 777 -436 756 -493 -8
-20 -15 -22 -88 -21 -76 1 -82 3 -134 40 -84 62 -213 137 -509 297 -52 28
-153 84 -620 345 -212 118 -351 195 -455 252 -33 18 -64 36 -70 40 -5 5 -77
45 -160 91 -251 138 -586 324 -660 366 -222 126 -506 284 -545 305 -38 20 -45
28 -48 57 -4 35 24 111 39 111 5 0 37 -17 71 -38z m-2372 -6 c32 -13 73 -27
90 -31 33 -7 34 -18 4 -77 -20 -38 -34 -44 -34 -14 0 24 -4 26 -43 26 -26 0
-60 -10 -89 -25 -26 -14 -56 -25 -68 -25 -11 0 -20 -6 -21 -12 0 -14 -115 -72
-164 -84 -16 -4 -36 -11 -42 -17 -9 -6 -13 -5 -13 5 0 19 93 141 134 175 19
15 44 45 56 66 21 36 24 37 76 37 34 0 76 -9 114 -24z m5903 -24 c33 -31 35
-64 5 -93 -36 -33 -107 -21 -163 28 -49 43 -52 48 -27 57 9 3 36 17 60 30 50
29 77 24 125 -22z m7525 -299 c2 -13 8 -23 13 -23 14 0 11 -28 -3 -33 -10 -3
-10 -9 0 -26 6 -11 12 -28 12 -37 0 -9 9 -27 20 -41 11 -14 20 -31 20 -38 0
-7 15 -22 33 -32 36 -22 57 -75 57 -143 0 -33 -4 -42 -25 -52 -27 -12 -92 2
-129 28 -31 21 -48 82 -49 179 -2 64 -7 100 -19 124 -21 40 -23 92 -6 109 7 7
26 12 43 10 22 -2 31 -9 33 -25z m-13553 -373 c0 -7 -17 -19 -37 -26 -20 -7
-65 -31 -99 -53 -34 -22 -83 -48 -108 -58 -25 -9 -54 -23 -64 -31 -22 -20 -36
-7 -44 41 -5 34 -3 36 35 56 23 12 47 21 54 21 7 0 30 11 50 25 26 17 52 25
85 26 26 1 62 5 78 9 38 9 50 7 50 -10z m-127 -505 c-6 -68 9 -86 47 -61 21
14 25 24 25 61 0 41 2 45 25 45 25 0 28 -4 29 -50 1 -19 11 -30 43 -45 52 -25
125 -94 164 -154 47 -73 34 -111 -23 -68 -51 38 -114 67 -148 67 -17 0 -66 20
-113 45 -79 42 -83 47 -95 90 -16 61 -15 68 9 99 32 41 42 33 37 -29z m-1822
-176 c276 -134 384 -193 384 -210 0 -5 -11 -7 -25 -4 -14 3 -36 7 -50 10 -13
3 -33 15 -44 27 -20 21 -198 74 -210 62 -8 -8 19 -23 63 -35 21 -6 36 -12 34
-14 -2 -3 -38 5 -79 16 -107 29 -106 29 -91 38 10 6 10 10 0 18 -17 13 -230
80 -283 88 -42 6 -185 73 -185 87 0 12 17 10 40 -4 16 -10 22 -10 28 -1 4 6
22 11 39 11 17 -1 44 8 60 20 15 12 33 22 39 22 6 0 132 -59 280 -131z m-6716
62 c124 -6 326 -14 450 -18 124 -3 272 -9 330 -14 58 -4 177 -11 265 -14 88
-3 212 -8 275 -11 131 -7 179 -6 232 2 20 3 45 1 55 -4 19 -10 517 -33 743
-33 69 -1 163 -5 210 -9 101 -11 310 -21 512 -25 81 -2 157 -6 168 -10 12 -4
43 -1 71 5 36 9 57 9 80 1 17 -6 124 -13 238 -16 113 -3 253 -8 310 -10 104
-4 104 -3 133 26 19 19 40 29 59 29 39 0 98 -25 105 -45 5 -11 22 -15 76 -15
38 0 67 -4 64 -8 -3 -5 -20 -7 -38 -5 l-33 4 25 -20 c36 -29 72 -34 122 -18
60 20 148 30 148 17 0 -5 -10 -10 -22 -10 -12 0 -35 -12 -50 -27 -25 -24 -36
-27 -91 -26 l-61 2 -49 -50 c-36 -37 -53 -48 -68 -44 -10 4 -19 12 -19 19 0
36 -47 42 -400 51 -113 3 -239 7 -280 10 -41 2 -167 7 -280 11 -113 3 -207 8
-211 9 -3 2 -70 4 -150 5 -79 1 -223 5 -319 10 -96 5 -265 12 -375 15 -205 6
-431 14 -520 19 -27 2 -147 6 -265 10 -118 4 -314 11 -435 16 -121 5 -294 12
-385 15 -91 3 -246 9 -345 14 -99 5 -196 8 -215 8 -35 -1 -236 8 -420 18 -96
6 -128 17 -100 36 14 9 489 5 640 -6 30 -2 129 -6 220 -10 91 -3 329 -12 530
-20 201 -8 433 -17 515 -20 83 -3 195 -7 250 -10 55 -3 224 -10 375 -15 151
-6 428 -17 615 -25 187 -8 421 -17 520 -20 99 -3 241 -8 315 -11 293 -11 425
-12 435 -4 11 9 27 8 55 -3 8 -3 33 -8 55 -11 22 -3 51 -8 64 -12 17 -5 22 -4
17 4 -13 21 -111 42 -211 45 -55 2 -105 6 -110 9 -16 10 -621 41 -635 33 -4
-2 -70 0 -146 5 -77 5 -281 14 -454 20 -173 5 -439 15 -590 20 -151 5 -347 12
-435 15 -362 12 -424 14 -515 20 -52 3 -165 7 -250 10 -85 3 -225 8 -310 11
-85 3 -216 7 -290 10 -74 2 -151 6 -170 9 -51 8 -303 18 -465 19 -127 1 -140
-1 -139 -16 2 -16 -8 -18 -77 -18 -64 0 -79 3 -79 15 0 12 13 15 59 15 42 0
60 4 64 14 3 8 21 16 39 18 58 5 335 0 568 -11z m5958 -15 c96 -56 274 -167
330 -204 l53 -35 -27 -28 c-33 -34 -61 -36 -116 -8 -33 17 -51 20 -93 14 -72
-9 -141 9 -191 51 -23 19 -100 69 -171 112 -71 42 -129 81 -128 86 0 5 42 11
92 13 51 2 110 10 130 18 54 19 58 19 121 -19z m9170 -67 c62 -51 75 -89 42
-124 -31 -33 -64 -38 -125 -20 -113 33 -146 96 -80 154 53 46 97 43 163 -10z
m-833 -61 c33 -19 92 -55 130 -79 39 -25 138 -83 220 -129 83 -46 209 -117
280 -158 72 -42 200 -114 285 -162 85 -48 173 -97 195 -110 22 -13 96 -55 165
-93 69 -38 166 -93 215 -122 50 -29 164 -94 255 -145 91 -51 190 -107 220
-125 30 -18 109 -63 175 -100 229 -128 394 -228 415 -250 11 -12 24 -39 27
-60 8 -48 -12 -65 -78 -65 -53 0 -93 19 -319 151 -80 47 -228 132 -330 189
-102 57 -268 150 -370 208 -268 152 -385 218 -570 322 -91 51 -199 112 -240
135 -110 62 -398 224 -450 253 -314 173 -381 214 -420 258 -52 60 -34 119 40
126 52 5 88 -6 155 -44z m3055 -34 c66 -60 49 -108 -38 -107 -50 0 -135 41
-146 69 -7 18 21 43 66 60 55 20 76 16 118 -22z m-12005 -109 c127 -3 259 -10
295 -15 36 -5 86 -10 111 -10 52 0 85 -23 50 -35 -12 -3 -24 -4 -29 -1 -4 2
-134 8 -287 12 -154 3 -296 8 -315 9 -19 1 -134 5 -255 9 -208 6 -305 18 -305
37 0 12 105 15 315 7 105 -4 294 -9 420 -13z m1145 -50 c32 -19 61 -35 65 -35
4 0 24 -13 45 -30 21 -16 113 -75 206 -130 119 -72 173 -99 188 -95 19 6 18 4
-4 -14 -14 -12 -44 -30 -68 -41 -24 -10 -59 -33 -79 -49 -31 -25 -40 -28 -52
-18 -9 6 -27 19 -41 26 -14 8 -72 44 -130 79 -58 36 -138 85 -179 109 -41 24
-91 57 -111 73 -38 30 -72 91 -54 97 5 2 32 17 59 33 28 16 61 30 74 30 13 0
49 -16 81 -35z m6203 -46 c12 -6 31 -23 43 -37 13 -15 32 -26 53 -27 44 -4 85
-35 89 -68 4 -36 -51 -113 -86 -120 -19 -4 -32 3 -58 32 l-34 36 -267 2 c-148
1 -315 4 -373 7 -58 3 -206 8 -330 11 -861 22 -785 17 -783 46 4 50 16 89 25
83 5 -3 6 -14 3 -23 -4 -15 2 -19 30 -24 40 -7 68 0 59 14 -3 5 -18 9 -34 9
-15 0 -30 6 -33 14 -7 17 38 27 125 27 70 1 96 -15 54 -31 -15 -5 -33 -10 -39
-10 -6 0 -3 -6 8 -14 26 -18 115 -30 163 -21 35 6 39 9 34 32 -6 34 20 27 28
-7 7 -28 38 -40 90 -34 130 14 139 20 57 38 -15 4 -25 11 -22 16 7 11 152 11
180 -1 11 -4 15 -8 9 -8 -6 -1 -11 -8 -11 -16 0 -12 3 -12 16 -2 9 7 12 8 8 1
-7 -12 21 -24 57 -24 18 0 19 1 1 20 -20 22 -15 36 10 27 8 -4 15 -16 15 -27
0 -30 36 -26 44 4 3 14 14 25 24 25 9 1 33 3 53 7 22 4 39 2 43 -5 4 -6 20
-11 36 -11 16 0 31 -4 34 -9 8 -13 -41 -20 -53 -8 -7 7 -15 6 -26 -3 -8 -7
-26 -10 -40 -8 -18 4 -25 1 -25 -10 0 -12 10 -14 50 -10 28 3 53 2 55 -2 2 -4
30 -8 62 -9 32 -1 108 -3 168 -5 146 -5 184 0 178 25 -5 17 1 19 50 19 50 0
56 -2 59 -22 2 -18 10 -23 42 -26 38 -3 38 -2 24 20 -18 27 -9 60 24 95 24 25
75 31 111 12z m715 -168 c52 4 415 -11 421 -17 3 -2 0 -9 -6 -15 -10 -10 -158
-20 -167 -12 -2 3 -100 6 -216 8 -137 3 -217 8 -224 15 -19 19 7 25 96 22 45
-1 89 -2 96 -1z m6692 -1136 c30 -24 61 -57 68 -72 13 -25 13 -28 -8 -45 -29
-24 -66 -23 -137 3 -63 23 -93 45 -93 66 0 22 71 93 94 93 12 0 46 -20 76 -45z
m-11207 3 c3 -24 -3 -46 -21 -78 -47 -84 -62 -119 -56 -134 3 -9 3 -23 0 -32
-5 -13 -9 -14 -21 -4 -13 11 -15 8 -15 -15 0 -15 -6 -39 -14 -53 -7 -15 -19
-39 -26 -54 -8 -16 -19 -28 -27 -28 -7 0 -13 -7 -13 -15 0 -9 -9 -15 -21 -15
-13 0 -19 5 -16 13 2 6 12 37 22 67 32 100 43 120 66 120 17 0 20 4 15 23 -3
14 2 39 14 62 11 22 20 47 20 56 0 26 11 49 22 49 15 0 37 32 38 53 0 31 28
18 33 -15z m9031 -8 c55 -37 64 -59 34 -82 -32 -25 -92 -22 -153 7 -85 40 -78
70 19 91 28 6 52 12 54 13 2 0 23 -12 46 -29z m-8779 -882 c-4 -24 -18 -64
-30 -91 -13 -26 -26 -65 -30 -87 -4 -22 -10 -40 -14 -40 -4 0 -7 -8 -8 -17 -2
-43 -24 -124 -47 -176 -19 -44 -30 -57 -47 -57 -21 0 -21 3 -16 57 4 34 14 68
26 84 12 16 21 42 21 58 0 32 13 68 61 164 16 32 29 65 29 73 0 8 7 14 15 14
9 0 15 9 15 24 0 20 8 30 28 35 2 1 1 -18 -3 -41z"/>
<path d="M35030 9210 c0 -5 5 -12 10 -15 6 -3 10 -19 10 -36 0 -22 -5 -29 -20
-29 -23 0 -25 -9 -9 -44 8 -18 9 -29 2 -38 -6 -7 -11 -25 -11 -39 0 -15 -9
-36 -21 -48 -11 -11 -21 -30 -21 -40 0 -11 -13 -35 -30 -53 -19 -20 -30 -43
-30 -61 0 -38 45 -82 99 -97 51 -13 63 -6 89 54 11 22 26 47 35 55 10 7 17 19
17 25 0 6 16 35 35 63 40 60 42 75 16 111 -10 15 -26 44 -34 64 -13 31 -22 38
-54 44 -35 7 -36 8 -15 17 29 13 23 31 -11 35 -15 2 -27 9 -27 17 0 7 -7 15
-15 19 -8 3 -15 1 -15 -4z"/>
<path d="M50350 5434 c-19 -8 -45 -13 -57 -11 -16 3 -24 -2 -28 -17 -4 -12
-14 -36 -23 -53 -14 -27 -22 -33 -50 -33 -22 0 -40 -8 -56 -25 -13 -14 -28
-25 -33 -25 -6 0 -16 -7 -23 -15 -7 -8 -23 -15 -36 -15 -19 0 -26 -7 -31 -30
-3 -17 -10 -33 -14 -36 -5 -3 -9 -16 -9 -29 0 -26 -38 -91 -58 -99 -9 -4 -18
5 -25 24 -6 16 -15 30 -19 30 -4 0 -8 6 -8 14 0 16 -30 48 -118 125 -68 59
-125 80 -149 55 -8 -8 -20 -14 -27 -14 -17 0 -86 -73 -86 -92 0 -8 -7 -21 -15
-28 -8 -7 -15 -23 -15 -36 0 -14 -13 -33 -35 -51 -32 -25 -35 -33 -35 -78 0
-30 6 -60 16 -73 8 -12 13 -22 9 -22 -3 0 2 -14 11 -31 9 -18 20 -61 25 -97 5
-35 16 -79 23 -96 8 -17 17 -45 21 -62 3 -17 17 -42 31 -55 21 -20 25 -32 23
-79 -1 -61 3 -83 23 -120 41 -76 48 -81 145 -110 65 -20 92 1 59 45 -10 14
-11 25 -3 42 11 26 51 32 64 10 4 -8 27 -31 51 -52 41 -37 43 -37 62 -20 16
14 19 26 14 55 -5 32 -3 38 16 43 18 5 20 9 11 25 -9 16 -7 21 9 25 10 3 27
22 37 43 10 21 41 56 68 77 84 65 94 70 108 60 6 -6 36 -13 66 -16 34 -4 62
-14 76 -27 12 -11 24 -20 28 -20 4 0 7 205 7 455 0 250 -3 455 -7 455 -5 -1
-24 -8 -43 -16z"/>
<path d="M30504 4475 c25 -19 267 -141 376 -190 47 -21 179 -85 295 -142 193
-97 210 -103 222 -87 7 10 13 21 13 25 0 4 -37 25 -82 48 -46 22 -137 69 -203
105 -90 50 -129 66 -155 64 -35 -2 -226 77 -260 108 -28 24 -168 84 -197 84
-27 -1 -27 -1 -9 -15z"/>
<path d="M50381 4292 c-7 -18 -25 -42 -40 -53 -55 -43 -101 -110 -101 -146 0
-20 -9 -46 -20 -60 -11 -14 -20 -31 -20 -38 0 -57 -166 -54 -211 4 -12 15 -39
31 -62 37 -40 10 -43 9 -67 -19 -25 -28 -25 -33 -18 -101 5 -39 7 -102 6 -141
-3 -119 20 -166 74 -149 43 13 95 -15 138 -78 22 -32 40 -65 40 -73 0 -8 28
-28 63 -44 34 -17 76 -39 92 -50 38 -27 87 -27 100 -2 6 10 18 32 28 49 16 29
17 67 15 464 -3 380 -5 429 -17 400z"/>
<path d="M24115 3140 c-22 -5 -24 -8 -9 -9 11 0 24 -4 28 -8 4 -4 21 -8 39
-10 282 -21 466 -33 622 -38 172 -6 192 -5 205 10 11 13 11 18 1 24 -7 5 -99
12 -204 16 -106 5 -219 9 -252 11 -223 9 -404 11 -430 4z"/>
<path d="M25342 3089 c9 -28 76 -37 318 -43 218 -6 360 -16 428 -31 12 -3 22
-1 22 4 0 5 -10 11 -22 14 -13 3 -47 14 -76 25 -40 16 -79 21 -160 22 -59 1
-123 3 -142 4 -19 2 -111 7 -204 11 -143 7 -168 6 -164 -6z"/>
<path d="M34723 2059 c-6 -8 -13 -68 -16 -134 -2 -66 -12 -189 -22 -274 -18
-165 -14 -201 26 -281 10 -19 25 -71 34 -115 9 -44 18 -88 21 -97 9 -30 24
-20 24 15 0 17 5 39 10 47 7 11 10 0 10 -37 0 -29 5 -53 10 -53 12 0 14 30 11
121 -2 41 1 69 8 73 6 4 9 19 5 34 -4 21 -3 23 5 12 9 -13 12 -13 25 0 24 24
10 60 -24 60 -25 0 -28 4 -34 46 -3 26 -6 60 -6 76 0 16 -6 31 -15 34 -20 8
-24 40 -35 249 -10 195 -18 246 -37 224z"/>
<path d="M34853 1053 c-33 -22 -28 -44 17 -88 21 -21 37 -42 34 -46 -9 -15 16
-89 38 -108 20 -20 21 -20 37 0 14 17 22 18 62 11 47 -9 144 -6 189 5 19 5 12
9 -35 15 -33 5 -77 10 -97 11 -21 0 -38 5 -38 9 0 11 -37 10 -59 -1 -10 -6
-23 -6 -32 0 -12 8 -12 10 1 19 12 8 4 21 -47 70 -67 64 -73 76 -46 95 24 18
2 25 -24 8z"/>
</g>
</svg>
